<svg width="23" height="23" viewBox="0 0 23 23" fill="none" xmlns="http://www.w3.org/2000/svg">
<path d="M11.5 0C5.15865 0 0 5.15865 0 11.5C0 17.8414 5.15865 23 11.5 23C17.8414 23 23 17.8414 23 11.5C23 5.15865 17.8414 0 11.5 0Z" fill="#7A9ACC"/>
<path d="M16.5315 12.4582H12.4585V16.5312C12.4585 17.0603 12.0293 17.4895 11.5003 17.4895C10.9712 17.4895 10.542 17.0603 10.542 16.5312V12.4582H6.46902C5.93996 12.4582 5.51074 12.029 5.51074 11.5C5.51074 10.9709 5.93996 10.5417 6.46902 10.5417H10.542V6.46871C10.542 5.93965 10.9712 5.51044 11.5003 5.51044C12.0293 5.51044 12.4585 5.93965 12.4585 6.46871V10.5417H16.5315C17.0606 10.5417 17.4898 10.9709 17.4898 11.5C17.4898 12.029 17.0606 12.4582 16.5315 12.4582Z" fill="#FAFAFA"/>
</svg>
