<svg width="15" height="15" viewBox="0 0 15 15" fill="none" xmlns="http://www.w3.org/2000/svg">
<path d="M7.5 0C3.36433 0 0 3.36433 0 7.5C0 11.6357 3.36433 15 7.5 15C11.6357 15 15 11.6357 15 7.5C15 3.36433 11.6357 0 7.5 0Z" fill="#535769"/>
<path d="M10.7812 8.12492H8.12492V10.7812C8.12492 11.1263 7.845 11.4062 7.49996 11.4062C7.15492 11.4062 6.875 11.1263 6.875 10.7812V8.12492H4.21871C3.87367 8.12492 3.59375 7.845 3.59375 7.49996C3.59375 7.15492 3.87367 6.875 4.21871 6.875H6.875V4.21871C6.875 3.87367 7.15492 3.59375 7.49996 3.59375C7.845 3.59375 8.12492 3.87367 8.12492 4.21871V6.875H10.7812C11.1263 6.875 11.4062 7.15492 11.4062 7.49996C11.4062 7.845 11.1263 8.12492 10.7812 8.12492Z" fill="#FAFAFA"/>
</svg>
