<svg width="40" height="40" viewBox="0 0 40 40" fill="none" xmlns="http://www.w3.org/2000/svg">
<path d="M34.5762 37.9669L37.8928 37.9669C38.3057 37.9681 38.6988 37.7901 38.9702 37.4789C39.2416 37.1677 39.3645 36.754 39.3071 36.3452L35.2542 8.13635L34.5762 37.9669Z" fill="#C7C7C7"/>
<path d="M33.2203 3.39062H2.0339C0.910607 3.39062 0 4.30123 0 5.42452V37.9669C0 39.0902 0.910607 40.0008 2.0339 40.0008H33.2203C34.3436 40.0008 35.2542 39.0902 35.2542 37.9669V5.42452C35.2542 4.30123 34.3436 3.39062 33.2203 3.39062Z" fill="#92DDA8"/>
<path d="M32.5424 7.45835V11.5261H2.71187V7.45835C2.7141 6.71041 3.31987 6.10465 4.0678 6.10242H31.1864C31.9344 6.10465 32.5401 6.71041 32.5424 7.45835Z" fill="#E64C3C"/>
<path d="M32.5424 11.526V31.9802C32.5422 32.3415 32.3983 32.6879 32.1424 32.943L28.1966 36.8887C27.9416 37.1446 27.5952 37.2886 27.2339 37.2887H4.0678C3.31987 37.2865 2.7141 36.6807 2.71187 35.9328V11.526H32.5424Z" fill="#ECF0F1"/>
<path d="M12.2034 29.8313C14.449 29.829 16.2689 28.0091 16.2712 25.7635V20.3398C16.2712 18.0932 14.4499 16.272 12.2034 16.272C9.95677 16.272 8.13556 18.0932 8.13556 20.3398V25.7635C8.1378 28.0091 9.9577 29.829 12.2034 29.8313ZM9.49149 20.3398C9.49149 18.842 10.7056 17.6279 12.2034 17.6279C13.7011 17.6279 14.9152 18.842 14.9152 20.3398V25.7635C14.9152 27.2612 13.7011 28.4753 12.2034 28.4753C10.7056 28.4753 9.49149 27.2612 9.49149 25.7635V20.3398Z" fill="#547580"/>
<path d="M19.661 28.4752C19.2866 28.4752 18.9831 28.7788 18.9831 29.1532C18.9831 29.5276 19.2866 29.8312 19.661 29.8312H25.0848C25.4592 29.8312 25.7627 29.5276 25.7627 29.1532C25.7627 28.7788 25.4592 28.4752 25.0848 28.4752H23.0509V16.9498C23.0508 16.6756 22.8856 16.4285 22.6323 16.3236C22.379 16.2187 22.0875 16.2767 21.8936 16.4705L19.1817 19.1824C18.9248 19.4484 18.9285 19.8712 19.19 20.1327C19.4515 20.3943 19.8743 20.3979 20.1404 20.141L21.6949 18.5864V28.4752H19.661Z" fill="#547580"/>
<path d="M25.0848 31.8652H9.49155C9.11712 31.8652 8.81358 32.1688 8.81358 32.5432C8.81358 32.9176 9.11712 33.2212 9.49155 33.2212H25.0848C25.4592 33.2212 25.7627 32.9176 25.7627 32.5432C25.7627 32.1688 25.4592 31.8652 25.0848 31.8652Z" fill="#35495E"/>
<path d="M32.4203 32.5431C32.3524 32.692 32.2582 32.8275 32.1424 32.9431L28.1966 36.8889C28.081 37.0047 27.9455 37.0989 27.7966 37.1668V33.899C27.7988 33.1511 28.4046 32.5453 29.1525 32.5431H32.4203Z" fill="#D1D4D1"/>
<path d="M16.0407 3.39055H14.6237C13.9461 1.83787 12.2262 1.02387 10.5958 1.4842C8.96543 1.94453 7.92522 3.53784 8.1597 5.21565C8.39417 6.89346 9.83131 8.14057 11.5254 8.13631C11.8999 8.13631 12.2034 8.43984 12.2034 8.81427C12.2034 9.1887 11.8999 9.49224 11.5254 9.49224C9.1116 9.49253 7.0821 7.68089 6.80946 5.28251C6.53682 2.88413 8.10791 0.663183 10.4602 0.121676C12.8125 -0.419831 15.1965 0.890635 16 3.16682C16.0272 3.23827 16.041 3.31411 16.0407 3.39055V3.39055Z" fill="#95A5A5"/>
<path d="M28.922 3.39055H27.505C26.8274 1.83787 25.1075 1.02387 23.4771 1.4842C21.8467 1.94453 20.8065 3.53784 21.041 5.21565C21.2755 6.89346 22.7126 8.14057 24.4067 8.13631C24.7812 8.13631 25.0847 8.43984 25.0847 8.81427C25.0847 9.1887 24.7812 9.49224 24.4067 9.49224C21.9929 9.49253 19.9634 7.68089 19.6908 5.28251C19.4181 2.88413 20.9892 0.663183 23.3415 0.121676C25.6938 -0.419831 28.0779 0.890635 28.8813 3.16682C28.9085 3.23827 28.9223 3.31411 28.922 3.39055V3.39055Z" fill="#95A5A5"/>
</svg>
