<svg width="20" height="20" viewBox="0 0 20 20" fill="none" xmlns="http://www.w3.org/2000/svg">
<path d="M9.99998 0C4.47715 0 0 4.47715 0 9.99998C0 15.5228 4.47715 20 9.99998 20C15.5228 20 20 15.5228 20 9.99998C19.9941 4.47961 15.5204 0.00590122 9.99998 0ZM9.99998 18.5714C5.26611 18.5714 1.42856 14.7338 1.42856 9.99998C1.42856 5.26611 5.26611 1.42856 9.99998 1.42856C14.7338 1.42856 18.5714 5.26611 18.5714 9.99998C18.5663 14.7318 14.7318 18.5663 9.99998 18.5714Z" fill="black"/>
<path d="M9.99986 3.57138C9.60535 3.57138 9.28556 3.89118 9.28556 4.28568V9.28569H4.28559C3.89109 9.28569 3.57129 9.60549 3.57129 9.99999C3.57129 10.3945 3.89109 10.7142 4.28559 10.7142H9.99986C10.3944 10.7142 10.7142 10.3945 10.7142 9.99995V4.28568C10.7142 3.89118 10.3944 3.57138 9.99986 3.57138Z" fill="black"/>
</svg>
