<svg width="15" height="15" viewBox="0 0 15 15" fill="none" xmlns="http://www.w3.org/2000/svg">
<g clip-path="url(#clip0)">
<path d="M1.71879 0.5H13.2812C13.9532 0.5 14.5 1.04679 14.5 1.71879V13.2812C14.5 13.9532 13.9532 14.5 13.2812 14.5H1.71879C1.04679 14.5 0.5 13.9532 0.5 13.2812V1.71879C0.5 1.04679 1.04679 0.5 1.71879 0.5Z" stroke="#828282"/>
<path d="M10.2618 9.37819C10.5061 9.62263 10.5061 10.0183 10.2618 10.262C10.1399 10.3839 9.9799 10.4451 9.8198 10.4451C9.65981 10.4451 9.49982 10.3839 9.37794 10.262L7.49985 8.38381L5.62176 10.262C5.49988 10.3839 5.3399 10.4451 5.17991 10.4451C5.0198 10.4451 4.85982 10.3839 4.73794 10.262C4.4936 10.0183 4.4936 9.62263 4.73794 9.37819L6.61614 7.5001L4.73794 5.62201C4.4936 5.37756 4.4936 4.98194 4.73794 4.73818C4.98238 4.49385 5.37732 4.49385 5.62176 4.73818L7.49985 6.61638L9.37794 4.73818C9.62239 4.49385 10.0173 4.49385 10.2618 4.73818C10.5061 4.98194 10.5061 5.37756 10.2618 5.62201L8.38357 7.5001L10.2618 9.37819Z" fill="#828282"/>
</g>
<defs>
<clipPath id="clip0">
<rect width="15" height="15" fill="white"/>
</clipPath>
</defs>
</svg>
