<svg width="20" height="20" viewBox="0 0 20 20" fill="none" xmlns="http://www.w3.org/2000/svg">
<path d="M8.31578 11.0053C8.00102 10.7809 7.73031 10.5347 7.41193 10.3122M8.31578 11.0053C8.78479 11.3398 9.34554 11.622 9.90317 11.9023M8.31578 11.0053L9.90317 8.05517M8.31578 11.0053L13 8.00387M7.41193 10.3122C7.05494 10.0626 6.634 9.83835 6.24018 9.60486M7.41193 10.3122L9.84053 8.05637M5.06814 8.61814C4.96105 8.43705 4.95371 8.18559 5.24239 8.10494C5.34587 8.07602 5.46462 8.07783 5.57856 8.07989C5.95665 8.08674 6.33475 8.09021 6.71286 8.0911M5.06814 8.61814C5.29786 9.00662 5.74784 9.31298 6.24018 9.60486M5.06814 8.61814L6.71286 8.0911M14.3753 8.00157C14.6074 8.00302 14.8914 8.02591 14.9772 8.1563M14.3753 8.00157C13.9169 7.9987 13.4584 7.99994 13 8.00387M14.3753 8.00157L10.555 11.8699M14.9772 8.1563C15.0293 8.23542 14.9831 8.32491 14.9279 8.40325C14.7681 8.63003 14.5348 8.8347 14.2977 9.03524C13.1347 10.0192 11.8441 10.9452 10.555 11.8699M14.9772 8.1563L6.24018 9.60486M10.555 11.8699C10.4736 11.9283 10.3794 11.991 10.2538 11.9991M10.2538 11.9991C10.1223 12.0076 10.0048 11.9534 9.90317 11.9023M10.2538 11.9991L13 8.00387M10.2538 11.9991L9.90317 8.05517M10.2538 11.9991L6.71286 8.0911M10.2538 11.9991L11.7716 8.01983M9.90317 11.9023L9.84053 8.05637M13 8.00387C12.5905 8.00738 12.1811 8.01303 11.7716 8.01983M9.90317 8.05517C9.88229 8.05557 9.86141 8.05597 9.84053 8.05637M9.90317 8.05517C10.526 8.04312 11.1488 8.03016 11.7716 8.01983M6.71286 8.0911L6.24018 9.60486M6.71286 8.0911C7.75534 8.09356 8.7979 8.07642 9.84053 8.05637M6.24018 9.60486L9.84053 8.05637" stroke="#535769" stroke-width="2" stroke-linejoin="round"/>
</svg>
