<svg width="210" height="210" viewBox="0 0 210 210" fill="none" xmlns="http://www.w3.org/2000/svg">
<circle cx="105" cy="105" r="105" fill="#F4F4F4"/>
<g clip-path="url(#clip0)">
<path d="M156.231 102.487C155.312 101.462 133.198 77.3418 105.5 77.3418C77.8024 77.3418 55.6887 101.462 54.7692 102.487C53.7436 103.634 53.7436 105.366 54.7692 106.513C55.6887 107.538 77.8028 131.658 105.5 131.658C133.197 131.658 155.311 107.538 156.231 106.513C157.256 105.366 157.256 103.634 156.231 102.487ZM105.5 125.623C93.8541 125.623 84.3771 116.146 84.3771 104.5C84.3771 92.854 93.8541 83.377 105.5 83.377C117.146 83.377 126.623 92.854 126.623 104.5C126.623 116.146 117.146 125.623 105.5 125.623Z" fill="#B9B9B9"/>
<path d="M108.518 98.4648C108.518 95.4292 110.025 92.7586 112.317 91.116C110.26 90.0629 107.965 89.4121 105.5 89.4121C97.1809 89.4121 90.4121 96.1809 90.4121 104.5C90.4121 112.819 97.1809 119.588 105.5 119.588C112.948 119.588 119.113 114.149 120.331 107.043C114.254 109 108.518 104.404 108.518 98.4648Z" fill="#7A9ACC"/>
</g>
<defs>
<clipPath id="clip0">
<rect width="103" height="103" fill="white" transform="translate(54 53)"/>
</clipPath>
</defs>
</svg>
