<svg width="215" height="215" viewBox="0 0 215 215" fill="none" xmlns="http://www.w3.org/2000/svg">
<circle cx="107.5" cy="107.5" r="107.5" fill="#F4F4F4"/>
<path d="M91.9735 76.917V69.6926C91.9735 69.0715 92.161 68.4648 92.5116 67.9518L102.766 52.9447C105.335 49.1855 104.37 44.0561 100.611 41.4874C96.8516 38.9187 91.722 39.8838 89.1533 43.643L77.6976 60.408C76.2571 62.5161 75.4865 65.01 75.4865 67.5632V90.7155V110.244L93.3982 98.0771L91.9735 76.917Z" fill="#FAC8AF"/>
<path d="M113.034 100.899L117.747 76.8516L99.297 92.3108L99.3104 92.3963C101.254 92.0945 103.3 92.6179 104.892 93.9718L113.034 100.899ZM123.825 64.1269L124.028 64.0415C124.957 63.3525 125.977 62.7757 127.064 62.3297C128.151 61.8838 129.305 61.5713 130.507 61.4057C134.707 60.8289 138.36 64.2925 138.01 68.5171L136.082 91.8221C136 92.8449 136.189 93.8677 136.635 94.7917L140.203 102.167C144.943 111.971 145.103 123.368 140.644 133.302L129.705 157.659V169.912C129.705 171.534 128.388 172.848 126.766 172.844L83.1168 172.728C81.5006 172.724 80.1927 171.413 80.1927 169.796V159.756L71.495 148.823C67.7991 144.179 65.5773 138.539 65.1127 132.624L63.2834 109.383C62.8908 104.408 64.9337 99.5477 68.7631 96.3432L110.946 61.0399C112.489 59.7447 114.369 59.1145 116.238 59.1145C118.591 59.1145 120.93 60.1159 122.559 62.0627C123.093 62.7009 123.515 63.3979 123.825 64.1269Z" fill="#FAC8AF"/>
<path d="M128.633 61.7922C128.098 61.941 127.572 62.121 127.064 62.3295C125.977 62.7755 124.957 63.3523 124.028 64.0413L123.825 64.1267C123.515 63.3977 123.093 62.7007 122.559 62.0625C122.148 61.5716 121.693 61.1414 121.203 60.7719L117.513 77.0477L117.747 76.8514L116.113 85.1885L124.968 77.7687C129.725 73.7801 131.056 67.1956 128.633 61.7922Z" fill="#F7B799"/>
<path d="M82.9433 91.3911L92.5155 84.9657L91.9737 76.917V71.6944L85.8135 76.8499C84.5004 77.9488 82.5016 77.0152 82.5016 75.303V69.268C82.5016 66.7145 83.2723 64.2209 84.7127 62.1126L96.1684 45.3475C97.4045 43.5385 99.2341 42.3788 101.218 41.9464C101.024 41.7859 100.822 41.6321 100.61 41.4871C96.8515 38.9184 91.7218 39.8835 89.1531 43.6427L77.6975 60.4077C76.257 62.5161 75.4863 65.0097 75.4863 67.5632V90.7154V91.3908H82.9433V91.3911Z" fill="#F9B8A3"/>
<path d="M122.559 62.0627C125.483 65.5529 125.024 70.7523 121.536 73.6764L99.2969 92.3108L99.3103 92.3963C98.0472 92.5885 96.8268 93.1333 95.804 94.0252L85.0715 103.366L64.0818 103.139C64.9844 100.528 66.584 98.1671 68.7631 96.3432L110.945 61.0399C112.489 59.7447 114.369 59.1145 116.238 59.1145C118.591 59.1145 120.93 60.1159 122.559 62.0627Z" fill="#FAC8AF"/>
<path d="M94.5004 172.728C92.8842 172.724 91.5763 171.412 91.5763 169.796V164.285C91.5763 161.352 90.582 158.506 88.756 156.21L82.8786 148.823C79.1827 144.179 76.9609 138.539 76.4963 132.624L74.667 109.383C74.2744 104.408 76.3173 99.5475 80.1467 96.343L121.921 61.3815C120.349 59.8829 118.299 59.1146 116.238 59.1146C114.369 59.1146 112.489 59.7448 110.945 61.04L68.7629 96.3432C64.9335 99.5478 62.8906 104.408 63.2832 109.383L65.1124 132.624C65.5771 138.539 67.7989 144.179 71.4948 148.823L80.1924 159.756V169.797C80.1924 171.413 81.5004 172.724 83.1166 172.728H94.5004V172.728Z" fill="#F7B799"/>
<path d="M125.114 121.995C126.997 119.781 128.034 116.963 128.034 114.062C128.034 110.46 126.461 107.057 123.72 104.73L113.917 96.3909L113.034 100.899L104.892 93.972C103.772 93.0197 102.428 92.48 101.052 92.3476V126.621C101.052 132.281 103.537 137.656 107.848 141.323C110.06 143.205 112.877 144.241 115.779 144.241C119.381 144.241 122.784 142.668 125.114 139.927C126.997 137.713 128.034 134.896 128.034 131.996C128.034 128.577 126.613 125.337 124.121 123.022C124.469 122.699 124.804 122.36 125.114 121.995Z" fill="#F7B799"/>
<path d="M124.028 114.061C124.028 115.949 123.382 117.848 122.063 119.4C120.741 120.954 118.968 121.896 117.098 122.198L117.055 122.249L104.892 111.904C102.267 109.671 98.4024 109.693 95.8041 111.957L85.0715 121.298V103.366L95.8041 94.0251C96.8268 93.1331 98.0472 92.5884 99.3104 92.3961C101.254 92.0943 103.3 92.6177 104.892 93.9717L113.034 100.899L121.125 107.781C123.043 109.409 124.028 111.727 124.028 114.061Z" fill="#FAC8AF"/>
<path d="M121.999 119.468C121.531 118.625 120.91 117.849 120.132 117.188L112.04 110.306L103.898 103.379C102.306 102.025 100.261 101.502 98.3167 101.804C97.0536 101.996 95.8332 102.541 94.8104 103.433L87.0057 110.225C85.7768 111.295 85.0715 112.844 85.0715 114.473V121.298L95.8041 111.957C98.4024 109.693 102.267 109.671 104.892 111.904L117.055 122.249L117.098 122.198C118.939 121.901 120.684 120.98 121.999 119.468Z" fill="#F7B799"/>
<path d="M124.028 131.996C124.028 133.884 123.382 135.78 122.063 137.332C119.114 140.801 113.91 141.22 110.443 138.272L100.395 129.724L97.4117 132.706L85.0715 121.298L95.8041 111.957C98.4024 109.693 102.267 109.671 104.892 111.904L121.125 125.713C123.043 127.344 124.028 129.662 124.028 131.996Z" fill="#FAC8AF"/>
<path d="M133.55 52.6389C133.221 52.6389 132.887 52.5575 132.578 52.3858C131.611 51.8474 131.264 50.6278 131.802 49.6614L135.918 42.2717C136.456 41.3056 137.676 40.9584 138.642 41.4965C139.608 42.0349 139.956 43.2545 139.417 44.2209L135.302 51.6106C134.936 52.268 134.254 52.6389 133.55 52.6389Z" fill="#7A9ACC"/>
<path d="M140.783 59.2347C140.112 59.2347 139.457 58.8979 139.078 58.2861C138.495 57.3459 138.786 56.1111 139.726 55.5289L146.917 51.0754C147.858 50.493 149.092 50.7833 149.674 51.7235C150.257 52.6638 149.967 53.8986 149.026 54.4808L141.835 58.9343C141.507 59.1377 141.143 59.2347 140.783 59.2347Z" fill="#7A9ACC"/>
</svg>
