<svg width="43" height="43" viewBox="0 0 43 43" fill="none" xmlns="http://www.w3.org/2000/svg">
<path d="M14 10H4.5V29.5L32 24V14H18.5L14 10Z" fill="#F4F4F4"/>
<path d="M38.9688 18.6445H34.4336V13.8742C34.4336 13.131 33.8331 12.5305 33.0898 12.5305H19.8623L14.9366 7.81895C14.8739 7.76027 14.7915 7.7273 14.7057 7.72656H4.03125C3.28799 7.72656 2.6875 8.32705 2.6875 9.07031V33.9297C2.6875 34.6729 3.28799 35.2734 4.03125 35.2734H33.3418C33.8877 35.2734 34.3832 34.9417 34.589 34.4336L40.2159 20.4922C40.2789 20.3326 40.3125 20.1604 40.3125 19.9883C40.3125 19.245 39.712 18.6445 38.9688 18.6445ZM31.4102 18.6445H9.99414C9.44824 18.6445 8.95273 18.9763 8.74697 19.4844L5.71094 27.0094V10.75H13.6265L18.6487 15.5539H31.4102V18.6445Z" fill="#F2C94C"/>
</svg>
