<svg width="20" height="20" viewBox="0 0 20 20" fill="none" xmlns="http://www.w3.org/2000/svg">
<g clip-path="url(#clip0)">
<path d="M14.5204 7.71385H13.323L13.8138 5.96122C13.901 5.64964 13.7191 5.3263 13.4076 5.23902C13.096 5.15174 12.7726 5.33363 12.6854 5.64521L12.1061 7.71385H9.02814L9.51703 5.96824C9.60416 5.65666 9.42227 5.33332 9.11069 5.24604C8.79926 5.15876 8.47577 5.34065 8.38849 5.65223L7.81125 7.71385H6.14941C5.82578 7.71385 5.56348 7.97615 5.56348 8.29979C5.56348 8.62342 5.82578 8.88572 6.14941 8.88572H7.48318L6.8739 11.0618H5.44629C5.12265 11.0618 4.86035 11.3241 4.86035 11.6477C4.86035 11.9714 5.12265 12.2337 5.44629 12.2337H6.54584L6.04474 14.0234C5.95746 14.3349 6.13934 14.6583 6.45093 14.7456C6.80493 14.831 7.1008 14.5982 7.17313 14.3394L7.76273 12.2337H10.8407L10.3416 14.0163C10.2543 14.3279 10.4362 14.6513 10.7478 14.7385C11.1291 14.831 11.3975 14.5911 11.47 14.3323L12.0576 12.2337H13.8173C14.1409 12.2337 14.4032 11.9714 14.4032 11.6477C14.4032 11.3241 14.1409 11.0618 13.8173 11.0618H12.3857L12.995 8.88572H14.5204C14.844 8.88572 15.1063 8.62342 15.1063 8.29979C15.1063 7.97615 14.844 7.71385 14.5204 7.71385ZM11.1688 11.0618H8.09079L8.70007 8.88572H11.7781L11.1688 11.0618Z" fill="black"/>
<path d="M17.0709 2.92908C16.1382 1.99631 15.0491 1.26755 13.8339 0.763092C12.6186 0.258637 11.3336 0.00183105 10.0145 0C10.0096 0 10.0049 0 10 0C7.3288 0 4.43619 1.17188 2.51068 3.37296C0.891571 5.19791 0 7.55142 0 10C0 11.7558 0.456543 13.4727 1.32202 14.977L0.587769 17.9094C0.483704 18.3258 0.598602 18.7601 0.896606 19.0724C1.29318 19.4855 1.75705 19.4855 2.08069 19.4101L5.21088 18.7836C6.66733 19.5798 8.31955 20 10 20C12.449 20 14.8026 19.1083 16.6269 17.4895C19.0913 15.0919 20 12.6715 20 10C20 7.3291 18.9598 4.81781 17.0709 2.92908ZM15.8493 16.6127C14.2393 18.0414 12.1622 18.8281 10 18.8281C8.46878 18.8281 6.96518 18.4338 5.65155 17.6877C5.53741 17.623 5.40939 17.5896 5.28 17.5896C5.23102 17.5896 5.18173 17.5943 5.13306 17.6041L1.84067 18.2629L1.81793 18.268C1.78711 18.2755 1.76819 18.2768 1.75873 18.2768C1.75507 18.2739 1.75003 18.2692 1.74332 18.2622C1.72546 18.2436 1.71844 18.2179 1.72455 18.194L2.50046 15.0948C2.54913 14.9001 2.51907 14.698 2.41577 14.5258C1.60202 13.1679 1.17188 11.6029 1.17188 10C1.17188 7.83829 1.95862 5.76096 3.38745 4.15054C5.20996 2.10449 7.64175 1.17188 10 1.17188H10.0128C12.3659 1.17523 14.5781 2.09351 16.2424 3.75763C17.9099 5.42511 18.8281 7.64206 18.8281 10C18.8281 12.3584 18.037 14.6144 15.8493 16.6127Z" fill="black"/>
</g>
<defs>
<clipPath id="clip0">
<rect width="20" height="20" fill="white"/>
</clipPath>
</defs>
</svg>
