<svg width="474" height="334" viewBox="0 0 474 334" fill="none" xmlns="http://www.w3.org/2000/svg">
<g clip-path="url(#clip0)">
<path d="M105.034 33.4571H74.8063C71.9002 33.4598 69.1139 34.6153 67.059 36.6702C65.0041 38.725 63.8485 41.5112 63.8458 44.4172V77.1879C63.4594 77.1648 63.0729 77.1302 62.6921 77.0841C55.5308 76.3307 48.7225 73.5918 43.0346 69.1761C37.3467 64.7605 33.0055 58.8438 30.5005 52.093C27.9955 45.3423 27.4263 38.026 28.857 30.9691C30.2878 23.9121 33.6615 17.3952 38.598 12.153C43.5345 6.91086 49.8373 3.15194 56.7959 1.30006C63.7544 -0.551812 71.092 -0.422995 77.9812 1.672C84.8705 3.767 91.0374 7.74485 95.7868 13.1571C100.536 18.5693 103.679 25.2006 104.861 32.3034C104.925 32.6841 104.982 33.0707 105.034 33.4571Z" fill="#F2F2F2"/>
<path d="M461.886 32.3034H74.8063C71.5945 32.3069 68.5152 33.5843 66.2441 35.8554C63.973 38.1264 62.6955 41.2055 62.692 44.4172V248.621C62.6955 251.833 63.973 254.912 66.2441 257.183C68.5152 259.454 71.5945 260.731 74.8063 260.735H461.886C465.098 260.731 468.177 259.454 470.448 257.183C472.719 254.912 473.996 251.833 474 248.621V44.4172C473.996 41.2055 472.719 38.1264 470.448 35.8554C468.177 33.5843 465.098 32.3069 461.886 32.3034ZM472.846 248.621C472.844 251.527 471.688 254.313 469.633 256.368C467.578 258.423 464.792 259.579 461.886 259.581H74.8063C71.9002 259.579 69.1138 258.423 67.0589 256.368C65.004 254.313 63.8484 251.527 63.8458 248.621V44.4172C63.8484 41.5112 65.004 38.725 67.0589 36.6702C69.1138 34.6153 71.9002 33.4598 74.8063 33.4571H461.886C464.792 33.4598 467.578 34.6153 469.633 36.6702C471.688 38.725 472.844 41.5112 472.846 44.4172V248.621Z" fill="#3F3D56"/>
<path d="M442.849 65.3969H93.843C93.69 65.3969 93.5433 65.3362 93.4351 65.228C93.3269 65.1198 93.2661 64.9731 93.2661 64.8201C93.2661 64.6671 93.3269 64.5204 93.4351 64.4122C93.5433 64.304 93.69 64.2432 93.843 64.2432H442.849C443.002 64.2432 443.149 64.304 443.257 64.4122C443.365 64.5204 443.426 64.6671 443.426 64.8201C443.426 64.9731 443.365 65.1198 443.257 65.228C443.149 65.3362 443.002 65.3969 442.849 65.3969Z" fill="#3F3D56"/>
<path d="M192.488 235.93C192.335 235.93 192.188 235.87 192.08 235.762C191.972 235.653 191.911 235.507 191.911 235.354V45.5709C191.911 45.4179 191.972 45.2712 192.08 45.163C192.188 45.0549 192.335 44.9941 192.488 44.9941C192.641 44.9941 192.787 45.0549 192.896 45.163C193.004 45.2712 193.064 45.4179 193.064 45.5709V235.354C193.064 235.507 193.004 235.653 192.896 235.762C192.787 235.87 192.641 235.93 192.488 235.93Z" fill="#3F3D56"/>
<path d="M279.595 235.93C279.442 235.93 279.295 235.87 279.187 235.762C279.079 235.653 279.018 235.507 279.018 235.354V45.5709C279.018 45.4179 279.079 45.2712 279.187 45.163C279.295 45.0549 279.442 44.9941 279.595 44.9941C279.748 44.9941 279.895 45.0549 280.003 45.163C280.111 45.2712 280.172 45.4179 280.172 45.5709V235.354C280.172 235.507 280.111 235.653 280.003 235.762C279.895 235.87 279.748 235.93 279.595 235.93Z" fill="#3F3D56"/>
<path d="M366.702 235.93C366.549 235.93 366.403 235.87 366.294 235.762C366.186 235.653 366.125 235.507 366.125 235.354V45.5709C366.125 45.4179 366.186 45.2712 366.294 45.163C366.403 45.0549 366.549 44.9941 366.702 44.9941C366.855 44.9941 367.002 45.0549 367.11 45.163C367.218 45.2712 367.279 45.4179 367.279 45.5709V235.354C367.279 235.507 367.218 235.653 367.11 235.762C367.002 235.87 366.855 235.93 366.702 235.93Z" fill="#3F3D56"/>
<path d="M136.483 124.938H115.404C114.716 124.937 114.056 124.663 113.569 124.177C113.082 123.69 112.809 123.03 112.808 122.342V97.4686C112.809 96.7804 113.082 96.1205 113.569 95.6339C114.056 95.1473 114.716 94.8735 115.404 94.8728H136.483C137.171 94.8735 137.831 95.1473 138.317 95.6339C138.804 96.1205 139.078 96.7804 139.079 97.4686V122.342C139.078 123.03 138.804 123.69 138.317 124.177C137.831 124.663 137.171 124.937 136.483 124.938Z" fill="#7A9ACC"/>
<path d="M166.48 195.89H145.401C144.713 195.889 144.053 195.615 143.566 195.129C143.08 194.642 142.806 193.982 142.805 193.294V168.421C142.806 167.733 143.08 167.073 143.566 166.586C144.053 166.099 144.713 165.826 145.401 165.825H166.48C167.168 165.826 167.828 166.099 168.315 166.586C168.801 167.073 169.075 167.733 169.076 168.421V193.294C169.075 193.982 168.801 194.642 168.315 195.129C167.828 195.615 167.168 195.889 166.48 195.89Z" fill="#7A9ACC"/>
<path d="M234.551 139.936H213.472C212.784 139.935 212.124 139.661 211.637 139.175C211.15 138.688 210.877 138.028 210.876 137.34V112.467C210.877 111.778 211.15 111.119 211.637 110.632C212.124 110.145 212.784 109.872 213.472 109.871H234.551C235.239 109.872 235.899 110.145 236.385 110.632C236.872 111.119 237.146 111.778 237.146 112.467V137.34C237.146 138.028 236.872 138.688 236.385 139.175C235.899 139.661 235.239 139.935 234.551 139.936Z" fill="#7A9ACC"/>
<path d="M322.812 112.824H301.733C301.045 112.823 300.385 112.549 299.898 112.063C299.411 111.576 299.138 110.916 299.137 110.228V85.3548C299.138 84.6666 299.411 84.0068 299.898 83.5201C300.385 83.0335 301.045 82.7598 301.733 82.759H322.812C323.5 82.7598 324.16 83.0335 324.646 83.5201C325.133 84.0068 325.407 84.6666 325.408 85.3548V110.228C325.407 110.916 325.133 111.576 324.646 112.063C324.16 112.55 323.5 112.823 322.812 112.824Z" fill="#7A9ACC"/>
<path d="M404.15 112.824H383.071C382.383 112.823 381.723 112.549 381.237 112.063C380.75 111.576 380.476 110.916 380.475 110.228V85.3548C380.476 84.6666 380.75 84.0068 381.237 83.5201C381.723 83.0335 382.383 82.7598 383.071 82.759H404.15C404.838 82.7598 405.498 83.0335 405.985 83.5201C406.472 84.0068 406.745 84.6666 406.746 85.3548V110.228C406.745 110.916 406.472 111.576 405.985 112.063C405.498 112.55 404.838 112.823 404.15 112.824Z" fill="#7A9ACC"/>
<path d="M441.647 119.746H420.568C419.88 119.745 419.22 119.472 418.733 118.985C418.247 118.498 417.973 117.839 417.972 117.15V92.277C417.973 91.5887 418.247 90.9289 418.733 90.4423C419.22 89.9557 419.88 89.6819 420.568 89.6812H441.647C442.335 89.6819 442.995 89.9557 443.481 90.4423C443.968 90.9289 444.242 91.5887 444.243 92.277V117.15C444.242 117.839 443.968 118.498 443.481 118.985C442.995 119.472 442.335 119.745 441.647 119.746Z" fill="#E6E6E6"/>
<path d="M424.918 164.163H403.839C403.15 164.163 402.491 163.889 402.004 163.402C401.517 162.916 401.244 162.256 401.243 161.568V136.694C401.244 136.006 401.517 135.346 402.004 134.86C402.491 134.373 403.15 134.099 403.839 134.098H424.918C425.606 134.099 426.266 134.373 426.752 134.86C427.239 135.346 427.513 136.006 427.513 136.694V161.568C427.513 162.256 427.239 162.916 426.752 163.402C426.266 163.889 425.606 164.163 424.918 164.163Z" fill="#E6E6E6"/>
<path d="M353.386 154.934H332.307C331.619 154.933 330.959 154.659 330.472 154.173C329.985 153.686 329.712 153.026 329.711 152.338V127.465C329.712 126.776 329.985 126.117 330.472 125.63C330.959 125.143 331.619 124.87 332.307 124.869H353.386C354.074 124.87 354.734 125.143 355.22 125.63C355.707 126.117 355.981 126.776 355.982 127.465V152.338C355.981 153.026 355.707 153.686 355.22 154.173C354.734 154.659 354.074 154.933 353.386 154.934Z" fill="#FF6584"/>
<path d="M312.428 164.163H291.349C290.661 164.163 290.001 163.889 289.514 163.402C289.028 162.916 288.754 162.256 288.753 161.568V136.694C288.754 136.006 289.028 135.346 289.514 134.86C290.001 134.373 290.661 134.099 291.349 134.098H312.428C313.116 134.099 313.776 134.373 314.263 134.86C314.749 135.346 315.023 136.006 315.024 136.694V161.568C315.023 162.256 314.749 162.916 314.263 163.402C313.776 163.889 313.116 164.163 312.428 164.163Z" fill="#E6E6E6"/>
<path d="M224.167 203.389H203.088C202.4 203.388 201.74 203.115 201.253 202.628C200.767 202.141 200.493 201.481 200.492 200.793V175.92C200.493 175.232 200.767 174.572 201.253 174.085C201.74 173.598 202.4 173.325 203.088 173.324H224.167C224.855 173.325 225.515 173.598 226.002 174.085C226.488 174.572 226.762 175.232 226.763 175.92V200.793C226.762 201.481 226.488 202.141 226.002 202.628C225.515 203.115 224.855 203.388 224.167 203.389Z" fill="#E6E6E6"/>
<path d="M117.446 170.509H96.3672C95.6789 170.508 95.0191 170.234 94.5324 169.748C94.0458 169.261 93.772 168.601 93.7712 167.913V143.04C93.772 142.351 94.0458 141.691 94.5324 141.205C95.0191 140.718 95.6789 140.444 96.3672 140.444H117.446C118.134 140.444 118.794 140.718 119.281 141.205C119.767 141.691 120.041 142.351 120.042 143.04V167.913C120.041 168.601 119.767 169.261 119.281 169.748C118.794 170.234 118.134 170.508 117.446 170.509Z" fill="#FF6584"/>
<path d="M176.864 124.938H155.785C155.097 124.937 154.437 124.663 153.95 124.177C153.463 123.69 153.19 123.03 153.189 122.342V97.4686C153.19 96.7804 153.463 96.1205 153.95 95.6339C154.437 95.1473 155.097 94.8735 155.785 94.8728H176.864C177.552 94.8735 178.212 95.1473 178.698 95.6339C179.185 96.1205 179.459 96.7804 179.459 97.4686V122.342C179.459 123.03 179.185 123.69 178.698 124.177C178.212 124.663 177.552 124.937 176.864 124.938Z" fill="#E6E6E6"/>
<path d="M159.606 55.9542H126.725C126.113 55.9542 125.526 55.7111 125.093 55.2784C124.66 54.8456 124.417 54.2587 124.417 53.6468C124.417 53.0348 124.66 52.4479 125.093 52.0152C125.526 51.5825 126.113 51.3394 126.725 51.3394H159.606C160.218 51.3394 160.805 51.5825 161.238 52.0152C161.671 52.4479 161.914 53.0348 161.914 53.6468C161.914 54.2587 161.671 54.8456 161.238 55.2784C160.805 55.7111 160.218 55.9542 159.606 55.9542Z" fill="#CCCCCC"/>
<path d="M252.482 55.9542H219.601C218.989 55.9542 218.402 55.7111 217.969 55.2784C217.536 54.8456 217.293 54.2587 217.293 53.6468C217.293 53.0348 217.536 52.4479 217.969 52.0152C218.402 51.5825 218.989 51.3394 219.601 51.3394H252.482C253.094 51.3394 253.681 51.5825 254.114 52.0152C254.546 52.4479 254.79 53.0348 254.79 53.6468C254.79 54.2587 254.546 54.8456 254.114 55.2784C253.681 55.7111 253.094 55.9542 252.482 55.9542Z" fill="#CCCCCC"/>
<path d="M339.589 55.9542H306.708C306.096 55.9542 305.509 55.7111 305.076 55.2784C304.643 54.8456 304.4 54.2587 304.4 53.6468C304.4 53.0348 304.643 52.4479 305.076 52.0152C305.509 51.5825 306.096 51.3394 306.708 51.3394H339.589C340.201 51.3394 340.788 51.5825 341.221 52.0152C341.654 52.4479 341.897 53.0348 341.897 53.6468C341.897 54.2587 341.654 54.8456 341.221 55.2784C340.788 55.7111 340.201 55.9542 339.589 55.9542Z" fill="#CCCCCC"/>
<path d="M420.928 55.9542H388.046C387.435 55.9542 386.848 55.7111 386.415 55.2784C385.982 54.8456 385.739 54.2587 385.739 53.6468C385.739 53.0348 385.982 52.4479 386.415 52.0152C386.848 51.5825 387.435 51.3394 388.046 51.3394H420.928C421.54 51.3394 422.127 51.5825 422.56 52.0152C422.992 52.4479 423.236 53.0348 423.236 53.6468C423.236 54.2587 422.992 54.8456 422.56 55.2784C422.127 55.7111 421.54 55.9542 420.928 55.9542Z" fill="#CCCCCC"/>
<path d="M85.9588 224.908C85.1148 224.825 84.2992 224.558 83.5694 224.126C82.8396 223.694 82.2134 223.108 81.7349 222.408C81.2564 221.707 80.9373 220.911 80.7999 220.074C80.6626 219.237 80.7104 218.381 80.94 217.564L66.1532 203.8L73.9714 201.817L88.5118 213.61C89.8577 214.086 90.982 215.04 91.6716 216.29C92.3613 217.54 92.5684 219 92.2537 220.393C91.9391 221.785 91.1244 223.014 89.9642 223.846C88.8041 224.678 87.3789 225.056 85.9588 224.908Z" fill="#FFB8B8"/>
<path d="M106.377 326.641H113.449L116.814 299.363H106.376L106.377 326.641Z" fill="#FFB8B8"/>
<path d="M127.089 333.207L104.862 333.208L104.861 324.621L118.501 324.62C120.778 324.62 122.963 325.525 124.573 327.135C126.184 328.746 127.089 330.93 127.089 333.207L127.089 333.207Z" fill="#2F2E41"/>
<path d="M57.886 321.535L64.7207 323.355L74.9896 297.86L64.903 295.176L57.886 321.535Z" fill="#FFB8B8"/>
<path d="M76.2119 333.21L54.7327 327.493L56.9416 319.194L70.1221 322.702C72.323 323.288 74.2011 324.724 75.3432 326.695C76.4853 328.665 76.7978 331.009 76.2119 333.21Z" fill="#2F2E41"/>
<path d="M115.351 321.477H104.56C103.878 321.479 103.22 321.226 102.716 320.768C102.211 320.31 101.896 319.679 101.833 319L95.2822 250.972C95.2342 250.473 95.0143 250.006 94.66 249.651C94.3058 249.297 93.8393 249.076 93.3403 249.027C92.8414 248.979 92.341 249.105 91.9249 249.384C91.5087 249.664 91.2026 250.079 91.0589 250.559L72.0376 314.128C71.8364 314.803 71.3821 315.375 70.7695 315.724C70.1569 316.073 69.4332 316.172 68.7494 316L58.7101 313.49C58.3597 313.402 58.0301 313.246 57.7403 313.031C57.4504 312.815 57.206 312.545 57.0212 312.235C56.8364 311.924 56.7147 311.581 56.6633 311.223C56.6119 310.866 56.6316 310.501 56.7215 310.152C56.8854 309.511 73.1107 246.105 73.2524 245.454C76.9287 218.36 81.3269 211.1 83.6897 207.2C83.8853 206.877 84.0651 206.581 84.2269 206.3C84.4294 205.949 85.6762 202.467 86.4672 200.206C86.5699 199.838 86.7478 199.496 86.9895 199.2C87.2313 198.904 87.5318 198.662 87.8719 198.488C97.8002 193.411 109.416 196.926 112.74 198.124C113.291 198.318 113.765 198.685 114.089 199.171C124.06 214.21 119.167 301.556 118.085 318.914C118.039 319.608 117.732 320.259 117.224 320.735C116.717 321.211 116.047 321.476 115.351 321.477Z" fill="#2F2E41"/>
<path d="M87.502 149.164C95.327 149.164 101.671 142.821 101.671 134.996C101.671 127.171 95.327 120.828 87.502 120.828C79.6769 120.828 73.3335 127.171 73.3335 134.996C73.3335 142.821 79.6769 149.164 87.502 149.164Z" fill="#FFB8B8"/>
<path d="M86.0007 202.957L85.8989 202.858C85.7079 202.673 66.8301 184.18 69.2732 167.079C70.3181 159.765 76.2362 155.092 86.3876 153.564C90.117 153.01 93.921 153.821 97.1004 155.847C100.28 157.873 102.621 160.979 103.694 164.594L113.731 198.907L86.0007 202.957Z" fill="#CCCCCC"/>
<path d="M76.3387 216.11L62.8871 202.744C61.9673 201.825 61.2995 200.685 60.948 199.433C60.5964 198.181 60.5729 196.86 60.8797 195.596L67.3918 169.108C67.5868 168.314 67.9427 167.569 68.4374 166.918C68.9321 166.268 69.5551 165.726 70.2678 165.325C70.9806 164.925 71.7678 164.676 72.5809 164.592C73.394 164.508 74.2156 164.592 74.9949 164.839C76.4802 165.318 77.7208 166.356 78.454 167.734C79.1872 169.111 79.3553 170.72 78.9228 172.219L72.067 195.522L83.1534 207.426L76.3387 216.11Z" fill="#CCCCCC"/>
<path d="M148.489 170.494C148.133 171.264 147.613 171.947 146.965 172.494C146.317 173.041 145.557 173.439 144.738 173.661C143.92 173.882 143.062 173.922 142.227 173.776C141.391 173.631 140.598 173.304 139.903 172.818L121.945 182.125L122.739 174.219L138.659 164.367C139.551 163.253 140.822 162.505 142.229 162.265C143.637 162.025 145.083 162.31 146.295 163.065C147.507 163.82 148.399 164.993 148.804 166.363C149.208 167.732 149.096 169.202 148.489 170.494H148.489Z" fill="#FFB8B8"/>
<path d="M137.942 176.379L120.436 183.944C119.271 184.443 117.997 184.635 116.736 184.5C115.476 184.364 114.271 183.907 113.238 183.172L90.9776 167.223C90.3132 166.747 89.7536 166.139 89.3333 165.438C88.9131 164.737 88.6413 163.957 88.5345 163.147C88.4278 162.337 88.4885 161.513 88.7129 160.727C88.9373 159.941 89.3206 159.21 89.8391 158.578C90.8354 157.377 92.2603 156.611 93.8118 156.442C95.3633 156.273 96.9196 156.715 98.151 157.674L117.239 172.696L132.41 166.826L137.942 176.379Z" fill="#CCCCCC"/>
<path d="M89.8508 139.536C91.5988 137.346 94.8643 137.228 97.2653 135.784C100.41 133.892 101.71 129.663 100.697 126.136C99.6835 122.608 96.6946 119.859 93.2678 118.544C89.841 117.229 86.0284 117.213 82.4135 117.849C77.0312 118.795 71.7321 121.307 68.4495 125.676C65.1668 130.045 64.3315 136.443 67.3064 141.027C68.6738 143.134 70.7845 144.873 71.3304 147.325C72.047 150.543 69.7893 153.647 67.3706 155.888C64.6151 158.442 61.4537 160.58 59.0395 163.458C56.6253 166.337 55.0155 170.269 56.1171 173.86C57.0401 176.869 59.7259 179.086 62.6712 180.196C65.6164 181.307 68.8241 181.467 71.971 181.528C75.0268 181.588 78.2725 181.514 80.8467 179.866C83.6025 178.103 85.0739 174.756 85.1826 171.486C85.2913 168.216 84.1986 165.013 82.734 162.087C81.8611 160.343 80.8461 158.653 80.2661 156.791C79.686 154.93 79.5855 152.817 80.5144 151.102C81.4909 149.3 83.4664 148.213 85.4779 147.817C85.5824 147.797 85.693 147.779 85.8086 147.762C86.381 147.688 86.9323 147.498 87.4293 147.205C87.9263 146.912 88.3586 146.521 88.7001 146.055C89.0416 145.59 89.2852 145.061 89.4162 144.498C89.5472 143.936 89.5628 143.354 89.4621 142.785C89.233 141.508 89.2527 140.285 89.8508 139.536Z" fill="#2F2E41"/>
<path d="M278.76 327.245H271.688L268.323 299.967L278.761 299.968L278.76 327.245Z" fill="#A0616A"/>
<path d="M266.636 325.225H280.275V333.812H258.048C258.048 332.684 258.27 331.568 258.702 330.526C259.133 329.484 259.766 328.537 260.564 327.74C261.361 326.942 262.308 326.31 263.35 325.878C264.392 325.447 265.508 325.225 266.636 325.225Z" fill="#2F2E41"/>
<path d="M330.076 319.235L323.643 322.173L309.248 298.759L318.742 294.422L330.076 319.235Z" fill="#A0616A"/>
<path d="M318.208 322.434L330.615 316.767L334.182 324.578L313.964 333.813C313.496 332.787 313.234 331.679 313.194 330.552C313.153 329.425 313.335 328.301 313.729 327.244C314.123 326.188 314.722 325.219 315.49 324.393C316.259 323.568 317.182 322.902 318.208 322.434Z" fill="#2F2E41"/>
<path d="M309.48 235.271C310.157 234.761 310.715 234.109 311.113 233.36C311.511 232.611 311.741 231.785 311.785 230.938C311.829 230.091 311.687 229.245 311.368 228.459C311.05 227.673 310.563 226.966 309.942 226.389L318.256 207.526L307.694 209.315L301.418 226.954C300.517 228.061 300.054 229.461 300.116 230.887C300.178 232.314 300.761 233.668 301.755 234.693C302.748 235.718 304.084 236.343 305.507 236.45C306.931 236.556 308.345 236.137 309.48 235.271Z" fill="#A0616A"/>
<path d="M278.309 320.053H271.553C270.898 320.051 270.267 319.802 269.788 319.355C269.308 318.909 269.014 318.299 268.964 317.645L265.279 219.259C265.252 218.882 265.307 218.504 265.441 218.15C265.575 217.797 265.785 217.477 266.056 217.213C266.326 216.949 266.651 216.747 267.008 216.622C267.365 216.497 267.744 216.451 268.121 216.487L307.195 220.637C307.828 220.699 308.417 220.991 308.849 221.458C309.281 221.926 309.526 222.535 309.538 223.171L310.357 266.571C310.361 266.806 310.407 267.039 310.492 267.259L326.52 308.822C326.644 309.143 326.703 309.486 326.693 309.83C326.683 310.174 326.605 310.513 326.463 310.826C326.322 311.14 326.119 311.422 325.867 311.656C325.615 311.891 325.319 312.073 324.996 312.192L318.149 314.714C317.555 314.933 316.9 314.927 316.31 314.697C315.719 314.467 315.233 314.029 314.943 313.466L295.253 275.181C295.146 274.973 295.068 274.751 295.02 274.522L291.656 258.316C291.559 257.846 291.297 257.426 290.918 257.132C290.539 256.838 290.068 256.688 289.588 256.71C289.109 256.731 288.653 256.923 288.302 257.25C287.951 257.578 287.728 258.02 287.674 258.496L280.888 317.752C280.816 318.385 280.513 318.97 280.038 319.394C279.562 319.819 278.947 320.053 278.309 320.053Z" fill="#2F2E41"/>
<path d="M281.674 142.331C289.499 142.331 295.842 135.987 295.842 128.163C295.842 120.338 289.499 113.995 281.674 113.995C273.848 113.995 267.505 120.338 267.505 128.163C267.505 135.987 273.848 142.331 281.674 142.331Z" fill="#A0616A"/>
<path d="M291.39 228.255C281.782 228.149 272.403 225.308 264.351 220.065L264.213 219.97L264.227 219.803L269.647 156.686C269.833 154.545 270.789 152.544 272.338 151.053C273.886 149.562 275.921 148.681 278.068 148.575C285.092 148.252 294.527 148.659 299.577 152.421C307.21 158.105 310.889 166.665 309.67 175.905C307.143 195.068 310.006 220.916 310.34 223.801L310.365 224.008L310.174 224.096C304.29 226.833 297.88 228.253 291.39 228.255Z" fill="#7A9ACC"/>
<path d="M310.275 223.908C309.876 223.907 309.481 223.823 309.115 223.662C308.75 223.501 308.422 223.266 308.152 222.972L305.052 219.591C304.717 219.223 304.483 218.776 304.371 218.292C304.259 217.807 304.273 217.302 304.413 216.825L311.48 192.907L300.727 170.327C300.225 169.27 300.102 168.072 300.379 166.935C300.623 165.937 301.163 165.037 301.93 164.352C302.696 163.668 303.652 163.232 304.671 163.102C305.69 162.971 306.725 163.153 307.638 163.623C308.552 164.093 309.302 164.829 309.789 165.733L324.381 189.408C324.974 190.369 325.321 191.46 325.394 192.586C325.466 193.712 325.261 194.839 324.796 195.868L312.907 222.21C312.711 222.645 312.41 223.025 312.031 223.315C311.651 223.605 311.206 223.796 310.734 223.871C310.582 223.895 310.429 223.907 310.275 223.908Z" fill="#7A9ACC"/>
<path d="M210.406 178.218C211.087 178.725 211.87 179.075 212.7 179.246C213.531 179.417 214.389 179.403 215.214 179.206C216.039 179.01 216.811 178.634 217.475 178.107C218.139 177.58 218.68 176.913 219.058 176.155L239.501 178.806L234.803 169.179L216.11 168.137C214.794 167.586 213.32 167.536 211.969 167.998C210.618 168.46 209.484 169.402 208.781 170.644C208.077 171.887 207.855 173.344 208.154 174.74C208.454 176.136 209.255 177.374 210.406 178.218V178.218Z" fill="#A0616A"/>
<path d="M255.466 183.476C255.11 183.476 254.755 183.451 254.402 183.402L222.241 178.942C221.716 178.87 221.216 178.668 220.788 178.355C220.36 178.041 220.017 177.626 219.789 177.147C219.715 176.993 219.654 176.833 219.606 176.669H219.605C219.481 176.243 219.446 175.796 219.503 175.356C219.56 174.916 219.708 174.493 219.937 174.113L222.599 169.7C222.885 169.229 223.288 168.839 223.768 168.567C224.248 168.296 224.79 168.153 225.342 168.151H225.346L253.38 168.183L274.317 149.426C275.291 148.555 276.535 148.046 277.84 147.984C278.986 147.931 280.121 148.226 281.095 148.831C282.07 149.436 282.838 150.322 283.298 151.373C283.759 152.423 283.89 153.589 283.675 154.715C283.46 155.842 282.908 156.877 282.093 157.684L261.201 180.918C260.479 181.723 259.594 182.367 258.606 182.807C257.618 183.248 256.548 183.476 255.466 183.476Z" fill="#7A9ACC"/>
<path d="M283.284 140.767C284.579 137.77 285.675 133.78 283.191 131.661C281.751 130.432 279.676 130.43 277.789 130.277C272.471 129.846 266.998 127.4 264.399 122.741C261.8 118.083 263.252 111.156 268.155 109.054C271.46 107.637 275.249 108.602 278.708 109.583L289.095 112.529C292.181 113.404 295.422 114.369 297.644 116.683C301.187 120.373 300.922 126.611 298.108 130.884C295.293 135.156 291.055 139.612 286.203 141.234L283.284 140.767Z" fill="#2F2E41"/>
<path d="M426.586 334H0.686908C0.59654 334 0.507011 333.983 0.423446 333.948C0.339881 333.914 0.26393 333.863 0.199937 333.8C0.135944 333.736 0.0851695 333.66 0.0505264 333.576C0.0158832 333.493 -0.00195312 333.403 -0.00195312 333.313C-0.00195312 333.223 0.0158832 333.133 0.0505264 333.05C0.0851695 332.966 0.135944 332.891 0.199937 332.827C0.26393 332.763 0.339881 332.712 0.423446 332.678C0.507011 332.644 0.59654 332.626 0.686908 332.626H426.586C426.677 332.626 426.766 332.644 426.85 332.678C426.933 332.712 427.009 332.763 427.073 332.827C427.137 332.891 427.188 332.966 427.223 333.05C427.257 333.133 427.275 333.223 427.275 333.313C427.275 333.403 427.257 333.493 427.223 333.576C427.188 333.66 427.137 333.736 427.073 333.8C427.009 333.863 426.933 333.914 426.85 333.948C426.766 333.983 426.677 334 426.586 334Z" fill="#3F3D56"/>
</g>
<defs>
<clipPath id="clip0">
<rect width="474" height="334" fill="white"/>
</clipPath>
</defs>
</svg>
