<svg width="22" height="22" viewBox="0 0 22 22" fill="none" xmlns="http://www.w3.org/2000/svg">
<path d="M19.7083 0H13.8939C12.7921 0 11.7563 0.429 10.9771 1.20815L0.781902 11.4033C0.27775 11.9075 0 12.5776 0 13.2935C0 14.0058 0.27775 14.6758 0.781902 15.18L6.82 21.2181C7.32415 21.7222 7.99425 22 8.71015 22C9.4224 22 10.0925 21.7222 10.5967 21.2181L20.7918 11.0229C21.571 10.2437 22 9.2079 22 8.1061V2.29165C22 1.0285 20.9715 0 19.7083 0ZM21.0833 8.1061C21.0833 8.9632 20.7497 9.76894 20.1447 10.3739L9.9486 20.57C9.2895 21.2291 8.1336 21.2337 7.469 20.57L1.43 14.531C1.0991 14.201 0.916652 13.761 0.916652 13.2898C0.916652 12.8223 1.09905 12.3823 1.43 12.0514L11.6252 1.85625C12.232 1.25035 13.0368 0.916652 13.8939 0.916652H19.7083C20.4664 0.916652 21.0833 1.53355 21.0833 2.29165V8.1061H21.0833Z" fill="black"/>
<path d="M16.9582 2.75C15.695 2.75 14.6665 3.7785 14.6665 5.04165C14.6665 6.3048 15.695 7.3333 16.9582 7.3333C18.2213 7.3333 19.2498 6.30485 19.2498 5.04165C19.2498 3.7785 18.2213 2.75 16.9582 2.75ZM16.9582 6.41665C16.2001 6.41665 15.5832 5.79975 15.5832 5.04165C15.5832 4.28355 16.2001 3.66665 16.9582 3.66665C17.7163 3.66665 18.3332 4.28355 18.3332 5.04165C18.3332 5.79975 17.7162 6.41665 16.9582 6.41665Z" fill="black"/>
</svg>
