<svg width="268" height="254" viewBox="0 0 268 254" fill="none" xmlns="http://www.w3.org/2000/svg">
<path d="M163.992 0H0V210.87H163.992V0Z" fill="#E6E6E6"/>
<path d="M159.437 27.0624H4.55542V79.8882H159.437V27.0624Z" fill="white"/>
<path d="M159.437 88.9813H4.55542V141.807H159.437V88.9813Z" fill="white"/>
<path d="M159.437 150.9H4.55542V203.726H159.437V150.9Z" fill="white"/>
<path d="M155.315 12.5569C157.712 12.5569 159.654 10.6183 159.654 8.22696C159.654 5.83557 157.712 3.89697 155.315 3.89697C152.919 3.89697 150.977 5.83557 150.977 8.22696C150.977 10.6183 152.919 12.5569 155.315 12.5569Z" fill="white"/>
<path d="M18.7637 119.724C21.1598 119.724 23.1021 117.786 23.1021 115.394C23.1021 113.003 21.1598 111.064 18.7637 111.064C16.3677 111.064 14.4253 113.003 14.4253 115.394C14.4253 117.786 16.3677 119.724 18.7637 119.724Z" fill="#E6E6E6"/>
<path d="M72.1261 111.93H31.345V118.858H72.1261V111.93Z" fill="#E6E6E6"/>
<path d="M95.8789 119.941C98.275 119.941 100.217 118.002 100.217 115.611C100.217 113.219 98.275 111.281 95.8789 111.281C93.4829 111.281 91.5405 113.219 91.5405 115.611C91.5405 118.002 93.4829 119.941 95.8789 119.941Z" fill="#E6E6E6"/>
<path d="M149.242 112.147H108.46V119.075H149.242V112.147Z" fill="#E6E6E6"/>
<path d="M157.574 6.58462L156.961 5.97229L155.315 7.61488L153.67 5.97229L153.056 6.58462L154.702 8.22721L153.056 9.86941L153.67 10.4817L155.315 8.83915L156.961 10.4817L157.574 9.86941L155.929 8.22721L157.574 6.58462Z" fill="#E6E6E6"/>
<path d="M18.7637 57.8054C21.1598 57.8054 23.1021 55.8668 23.1021 53.4754C23.1021 51.084 21.1598 49.1454 18.7637 49.1454C16.3677 49.1454 14.4253 51.084 14.4253 53.4754C14.4253 55.8668 16.3677 57.8054 18.7637 57.8054Z" fill="#E6E6E6"/>
<path d="M149.567 49.5784H39.3711V56.5064H149.567V49.5784Z" fill="#E6E6E6"/>
<path d="M131.562 49.5784H32.6465V56.5064H131.562V49.5784Z" fill="#7A9ACC"/>
<path d="M18.7637 181.643C21.1598 181.643 23.1021 179.704 23.1021 177.313C23.1021 174.922 21.1598 172.983 18.7637 172.983C16.3677 172.983 14.4253 174.922 14.4253 177.313C14.4253 179.704 16.3677 181.643 18.7637 181.643Z" fill="#E6E6E6"/>
<path d="M149.567 173.416H39.3711V180.344H149.567V173.416Z" fill="#E6E6E6"/>
<path d="M94.5774 173.416H32.6465V180.344H94.5774V173.416Z" fill="#7A9ACC"/>
<path d="M44.2518 111.93H31.345V118.858H44.2518V111.93Z" fill="#7A9ACC"/>
<path d="M134.057 112.147H108.46V119.075H134.057V112.147Z" fill="#7A9ACC"/>
<path d="M197.23 212.838C197.297 219.661 193.256 222.082 188.244 222.131C188.127 222.132 188.011 222.132 187.896 222.131C187.664 222.128 187.434 222.12 187.206 222.106C182.679 221.83 179.139 219.36 179.077 213.015C179.013 206.449 187.34 198.08 187.965 197.461L187.966 197.461C187.99 197.437 188.002 197.425 188.002 197.425C188.002 197.425 197.164 206.016 197.23 212.838Z" fill="#E6E6E6"/>
<path d="M233.191 81.1562L235.662 106H256L255.022 68.2375C255.022 60.1094 249.495 53 241.5 53C233.505 53 228.303 59.7782 228.303 67.9063L227 106H230.316L233.191 81.1562Z" fill="#2F2E41"/>
<path d="M245.438 213C245.438 213 244.582 218.344 243.156 219.187C241.729 220.031 250.573 222 250.573 222L252 213.563L245.438 213Z" fill="#FBBEBE"/>
<path d="M256.683 148L260 151.838L258.492 165.122L257.286 191.394C257.286 191.394 259.698 214.125 257.286 214.715C254.873 215.305 244.016 215.01 244.317 213.534C244.619 212.058 244.921 210.877 245.524 208.811C246.127 206.745 244.921 199.365 244.921 199.365L246.429 191.099L241 155.38L256.683 148Z" fill="#2F2E41"/>
<path d="M245.938 218.257C245.938 218.257 242.702 217.679 242.407 218.257C242.113 218.836 236.523 224.912 235.64 224.912C234.757 224.912 228.284 230.699 235.051 230.988C241.819 231.278 253 226.069 253 226.069C253 226.069 251.355 218.707 251.442 219.061C251.529 219.415 245.938 219.704 245.938 218.257Z" fill="#2F2E41"/>
<path d="M242 204.675C242 204.675 250.235 213.734 250.529 214.61C250.824 215.487 255.235 214.61 255.235 214.61L257 208.766L255.529 206.721L247.294 200L242 204.675Z" fill="#FBBEBE"/>
<path d="M254.296 211.314L250 215.38C250 215.38 255.481 223.827 255.481 224.721C255.481 225.615 255.778 233.063 258.741 231.871C261.704 230.68 262 218.762 262 218.762C262 218.762 261.704 206.548 259.926 205.654C258.148 204.76 254.252 205.042 254.252 205.042C254.252 205.042 256.667 211.016 254.296 211.314Z" fill="#2F2E41"/>
<path d="M229.076 121.227C229.076 121.227 227.56 125.972 227.257 127.158C226.954 128.345 225.134 131.607 225.134 136.648C225.134 141.69 225.741 147.621 225.134 148.214C224.528 148.808 214.826 182.023 219.071 185.581C223.315 189.14 237.262 201.003 238.171 202.486C239.081 203.968 239.384 207.527 241.203 206.934C243.022 206.341 249.995 200.41 250.298 199.223C250.601 198.037 246.357 195.961 246.357 195.961C246.357 195.961 237.868 183.802 235.746 184.099C233.623 184.395 233.927 182.616 234.23 181.726C234.533 180.836 235.139 180.243 234.23 180.243C233.32 180.243 233.927 177.871 234.23 176.684C234.533 175.498 241.506 159.484 241.506 159.484L260 151.477C260 151.477 259.09 129.827 252.421 123.896L250.905 120.337C250.905 120.337 233.927 119.151 229.076 121.227Z" fill="#2F2E41"/>
<path d="M236.735 74C236.735 74 238.241 84.3521 234.626 84.9437C231.012 85.5352 228 85.2394 228 85.5352C228 85.831 237.036 95 237.036 95L245.47 94.4085L253 86.4225C253 86.4225 246.072 85.2394 246.072 81.0986C246.072 76.9577 245.771 74 245.771 74L236.735 74Z" fill="#FFB8B8"/>
<path d="M241.5 78C246.747 78 251 73.7467 251 68.5C251 63.2533 246.747 59 241.5 59C236.253 59 232 63.2533 232 68.5C232 73.7467 236.253 78 241.5 78Z" fill="#FFB8B8"/>
<path d="M236.169 84C236.169 84 221.96 85.358 221.079 89.2417C220.198 93.1254 226.95 117.324 227.83 119.415C228.711 121.506 228.417 123 228.417 123C229.746 121.989 231.271 121.279 232.891 120.919C234.512 120.558 236.189 120.555 237.811 120.909C243.388 122.104 251.313 121.506 251.313 121.506C251.313 121.506 253.955 110.453 254.542 109.258C255.129 108.063 257.478 101.49 257.478 99.6978C257.478 97.9054 261 90.4367 261 90.4367C261 90.4367 259.239 85.0593 252.781 85.3581C252.781 85.3581 249.964 84.0749 249.171 85.0152C248.378 85.9556 243.975 90.138 238.398 88.3455C232.82 86.553 236.169 84 236.169 84Z" fill="#E6E6E6"/>
<path d="M256 89L261.473 90.4894C261.473 90.4894 265.506 105.681 265.794 105.979C266.082 106.277 266.37 108.064 266.37 108.064C266.37 108.064 266.37 108.362 266.946 109.255C267.522 110.149 268.386 109.553 267.81 110.745C267.234 111.936 266.37 111.34 266.946 112.532C267.522 113.723 267.234 117 267.234 117C267.234 117 265.794 111.34 260.609 112.83L257.152 96.7447L256 89Z" fill="#E6E6E6"/>
<path d="M258 91.8889L257.979 91.9573L247.845 123L241.193 121.563L234 120.011L244.155 88L258 91.8889Z" fill="#7A9ACC"/>
<path d="M226 89L220.527 90.4894C220.527 90.4894 216.494 105.681 216.206 105.979C215.918 106.277 215.63 108.064 215.63 108.064C215.63 108.064 215.63 108.362 215.054 109.255C214.478 110.149 213.614 109.553 214.19 110.745C214.766 111.936 215.63 111.34 215.054 112.532C214.478 113.723 214.766 117 214.766 117C214.766 117 216.206 111.34 221.391 112.83L224.848 96.7447L226 89Z" fill="#E6E6E6"/>
<path d="M216.942 111.979L215.066 115.118C215.066 115.118 214.239 121 218.444 121C222.649 121 228.656 115.286 228.656 115.286C228.656 115.286 231.659 114.084 233.461 114.384C235.263 114.685 245.175 114.384 240.97 109.272C236.765 104.16 229.557 109.272 229.557 109.272L222.048 112.881L218.144 110.776L216.942 111.979Z" fill="#FFB8B8"/>
<path d="M219.227 107.603L222 112.425C222 112.425 215.622 113.329 215.067 114.836C214.513 116.342 217.563 107 217.563 107L219.227 107.603Z" fill="#E6E6E6"/>
<path d="M233.41 65C239.635 61.8801 242.193 62.0122 249.934 65L252 60.3222C251.999 59.4414 251.622 58.597 250.952 57.9741C250.282 57.3513 249.374 57.001 248.426 57H234.574C233.626 57.001 232.718 57.3513 232.048 57.9741C231.378 58.597 231.001 59.4414 231 60.3222L233.41 65Z" fill="#2F2E41"/>
<path opacity="0.2" d="M257 91.9081L247.34 123L241 121.561L250.529 90L257 91.9081Z" fill="black"/>
<path d="M252.731 90L243 122.009L256.269 125L266 93.8887L252.731 90Z" fill="#7A9ACC"/>
<path d="M265.13 111.979L266.937 115.118C266.937 115.118 267.733 121 263.684 121C259.634 121 253.85 115.286 253.85 115.286C253.85 115.286 250.958 114.084 249.222 114.384C247.487 114.685 237.943 114.384 241.992 109.272C246.041 104.16 252.982 109.272 252.982 109.272L260.213 112.881L263.973 110.776L265.13 111.979Z" fill="#FFB8B8"/>
<path d="M263.169 107.603L260 112.425C260 112.425 267.289 113.329 267.923 114.836C268.557 116.342 265.071 107 265.071 107L263.169 107.603Z" fill="#E6E6E6"/>
</svg>
