<svg width="22" height="22" viewBox="0 0 22 22" fill="none" xmlns="http://www.w3.org/2000/svg">
<g clip-path="url(#clip0)">
<path d="M1.73855 13.4639C1.82248 13.5478 1.93241 13.5898 2.04235 13.5898C2.15229 13.5898 2.26223 13.5478 2.34616 13.4639L8.84986 6.96037L12.7872 10.8979C12.8678 10.9784 12.9772 11.0238 13.091 11.0238C13.205 11.0238 13.3142 10.9784 13.395 10.8979L15.6787 8.61399C15.8465 8.44631 15.8465 8.17423 15.6787 8.00638C15.5108 7.83854 15.2389 7.83854 15.0711 8.00638L13.091 9.9863L9.15367 6.04879C9.07293 5.96823 8.96367 5.92291 8.84986 5.92291C8.7359 5.92291 8.62663 5.96823 8.5459 6.04879L2.04235 12.5525L1.03729 11.5474L8.84986 3.73503L12.7874 7.67254C12.8679 7.7531 12.9772 7.79842 13.0912 7.79842C13.2051 7.79842 13.3144 7.7531 13.395 7.67254L18.5841 2.48323C18.752 2.31556 18.752 2.04348 18.5841 1.87563L18.4258 1.71718L20.9625 1.03757L20.2829 3.57423L20.1968 3.4883C20.1162 3.40773 20.0069 3.36241 19.893 3.36241C19.779 3.36241 19.6697 3.40773 19.5892 3.4883L17.5018 5.57563C17.334 5.74348 17.334 6.01556 17.5018 6.18341C17.6697 6.35108 17.9416 6.35108 18.1096 6.18341L19.8931 4.39987L20.2015 4.7082C20.3101 4.81663 20.4682 4.85927 20.6166 4.81949C20.7648 4.77971 20.8806 4.66389 20.9204 4.51569L21.9853 0.541084C22.0251 0.392708 21.9827 0.234597 21.8741 0.126C21.7656 0.0174037 21.6074 -0.0248936 21.4592 0.0147181L17.4846 1.0797C17.3363 1.11948 17.2205 1.2353 17.1807 1.38367C17.141 1.53188 17.1834 1.69016 17.2919 1.79859L17.6727 2.17943L13.0912 6.76097L9.15367 2.82346C8.98599 2.65578 8.71391 2.65561 8.54606 2.82346L0.125885 11.2436C-0.0419616 11.4115 -0.0419616 11.6836 0.125885 11.8514L1.73855 13.4639Z" fill="black"/>
<path d="M21.5703 21.1406H21.1406V8.14978C21.1406 7.91244 20.9482 7.72009 20.7109 7.72009H18.3046C18.0673 7.72009 17.875 7.91244 17.875 8.14978V21.1406H16.8867V13.2773C16.8867 13.0401 16.6943 12.8476 16.457 12.8476H14.0508C13.8134 12.8476 13.6211 13.0401 13.6211 13.2773V21.1406H12.6328V15.5547C12.6328 15.3175 12.4404 15.125 12.2031 15.125H9.79685C9.55952 15.125 9.36717 15.3175 9.36717 15.5547V21.1406H8.37889V13.2773C8.37889 13.0401 8.18654 12.8476 7.9492 12.8476H5.54296C5.30562 12.8476 5.11327 13.0401 5.11327 13.2773V21.1406H4.12499V17.2017C4.12499 16.9646 3.93264 16.772 3.6953 16.772H1.28906C1.05173 16.772 0.859373 16.9646 0.859373 17.2017V21.1406H0.429687C0.192352 21.1406 0 21.3331 0 21.5703C0 21.8076 0.192352 22 0.429687 22H21.5703C21.8076 22 22 21.8076 22 21.5703C22 21.3331 21.8076 21.1406 21.5703 21.1406ZM1.71875 21.1406V17.6314H3.26562V21.1406H1.71875ZM5.97264 21.1406V13.707H7.51952V21.1406H5.97264ZM10.2265 21.1406V15.9843H11.7734V21.1406H10.2265ZM14.4804 21.1406V13.707H16.0273V21.1406H14.4804ZM18.7343 21.1406V8.57947H20.2812V21.1406H18.7343Z" fill="black"/>
<path d="M16.2865 6.79068C16.2066 6.87057 16.1606 6.98152 16.1606 7.09448C16.1606 7.20795 16.2066 7.31839 16.2865 7.39828C16.3664 7.47868 16.4772 7.52417 16.5903 7.52417C16.7033 7.52417 16.8141 7.47868 16.8941 7.39828C16.9744 7.31839 17.02 7.20761 17.02 7.09448C17.02 6.98152 16.9744 6.87108 16.8941 6.79068C16.8141 6.71078 16.7033 6.66479 16.5903 6.66479C16.4772 6.66479 16.3664 6.71078 16.2865 6.79068Z" fill="black"/>
</g>
<defs>
<clipPath id="clip0">
<rect width="22" height="22" fill="white"/>
</clipPath>
</defs>
</svg>
