<svg width="21" height="21" viewBox="0 0 21 21" fill="none" xmlns="http://www.w3.org/2000/svg">
<g clip-path="url(#clip0)">
<path d="M10.7188 10.5C10.3565 10.5 10.0625 10.206 10.0625 9.84375V9.1875H3.9375V9.84375C3.9375 10.206 3.6435 10.5 3.28125 10.5C2.919 10.5 2.625 10.206 2.625 9.84375V8.53125C2.625 8.169 2.919 7.875 3.28125 7.875H10.7188C11.081 7.875 11.375 8.169 11.375 8.53125V9.84375C11.375 10.206 11.081 10.5 10.7188 10.5Z" fill="black"/>
<path d="M7 16.4062C6.63775 16.4062 6.34375 16.1122 6.34375 15.75V8.74997C6.34375 8.38772 6.63775 8.09372 7 8.09372C7.36225 8.09372 7.65625 8.38772 7.65625 8.74997V15.75C7.65625 16.1122 7.36225 16.4062 7 16.4062Z" fill="black"/>
<path d="M8.09375 16.625H5.90625C5.544 16.625 5.25 16.331 5.25 15.9687C5.25 15.6065 5.544 15.3125 5.90625 15.3125H8.09375C8.456 15.3125 8.75 15.6065 8.75 15.9687C8.75 16.331 8.456 16.625 8.09375 16.625Z" fill="black"/>
<path d="M17.7188 9.1875H13.7812C13.419 9.1875 13.125 8.8935 13.125 8.53125C13.125 8.169 13.419 7.875 13.7812 7.875H17.7188C18.081 7.875 18.375 8.169 18.375 8.53125C18.375 8.8935 18.081 9.1875 17.7188 9.1875Z" fill="black"/>
<path d="M17.7188 12.6875H13.7812C13.419 12.6875 13.125 12.3935 13.125 12.0312C13.125 11.669 13.419 11.375 13.7812 11.375H17.7188C18.081 11.375 18.375 11.669 18.375 12.0312C18.375 12.3935 18.081 12.6875 17.7188 12.6875Z" fill="black"/>
<path d="M17.7188 16.1875H13.7812C13.419 16.1875 13.125 15.8935 13.125 15.5313C13.125 15.169 13.419 14.875 13.7812 14.875H17.7188C18.081 14.875 18.375 15.169 18.375 15.5313C18.375 15.8935 18.081 16.1875 17.7188 16.1875Z" fill="black"/>
<path d="M18.5938 20.125H2.40625C1.07888 20.125 0 19.0461 0 17.7187V3.28121C0 1.95384 1.07888 0.874964 2.40625 0.874964H18.5938C19.9211 0.874964 21 1.95384 21 3.28121V17.7187C21 19.0461 19.9211 20.125 18.5938 20.125ZM2.40625 2.18746C1.80338 2.18746 1.3125 2.67834 1.3125 3.28121V17.7187C1.3125 18.3216 1.80338 18.8125 2.40625 18.8125H18.5938C19.1966 18.8125 19.6875 18.3216 19.6875 17.7187V3.28121C19.6875 2.67834 19.1966 2.18746 18.5938 2.18746H2.40625Z" fill="black"/>
<path d="M20.3438 5.24999H0.65625C0.294 5.24999 0 4.95599 0 4.59374C0 4.23149 0.294 3.93749 0.65625 3.93749H20.3438C20.706 3.93749 21 4.23149 21 4.59374C21 4.95599 20.706 5.24999 20.3438 5.24999Z" fill="black"/>
</g>
<defs>
<clipPath id="clip0">
<rect width="21" height="21" fill="white"/>
</clipPath>
</defs>
</svg>
