<svg width="19" height="19" viewBox="0 0 19 19" fill="none" xmlns="http://www.w3.org/2000/svg">
<g clip-path="url(#clip0)">
<path d="M2.77083 5.54159H1.1875C0.532792 5.54159 0 5.00879 0 4.35409V2.77075C0 2.11604 0.532792 1.58325 1.1875 1.58325H2.77083C3.42554 1.58325 3.95833 2.11604 3.95833 2.77075V4.35409C3.95833 5.00879 3.42554 5.54159 2.77083 5.54159ZM1.1875 2.37492C0.969792 2.37492 0.791667 2.55304 0.791667 2.77075V4.35409C0.791667 4.57179 0.969792 4.74992 1.1875 4.74992H2.77083C2.98854 4.74992 3.16667 4.57179 3.16667 4.35409V2.77075C3.16667 2.55304 2.98854 2.37492 2.77083 2.37492H1.1875Z" fill="black"/>
<path d="M2.77083 11.8751H1.1875C0.532792 11.8751 0 11.3423 0 10.6876V9.10425C0 8.44954 0.532792 7.91675 1.1875 7.91675H2.77083C3.42554 7.91675 3.95833 8.44954 3.95833 9.10425V10.6876C3.95833 11.3423 3.42554 11.8751 2.77083 11.8751ZM1.1875 8.70841C0.969792 8.70841 0.791667 8.88654 0.791667 9.10425V10.6876C0.791667 10.9053 0.969792 11.0834 1.1875 11.0834H2.77083C2.98854 11.0834 3.16667 10.9053 3.16667 10.6876V9.10425C3.16667 8.88654 2.98854 8.70841 2.77083 8.70841H1.1875Z" fill="black"/>
<path d="M2.77083 18.2083H1.1875C0.532792 18.2083 0 17.6755 0 17.0208V15.4375C0 14.7828 0.532792 14.25 1.1875 14.25H2.77083C3.42554 14.25 3.95833 14.7828 3.95833 15.4375V17.0208C3.95833 17.6755 3.42554 18.2083 2.77083 18.2083ZM1.1875 15.0417C0.969792 15.0417 0.791667 15.2198 0.791667 15.4375V17.0208C0.791667 17.2385 0.969792 17.4167 1.1875 17.4167H2.77083C2.98854 17.4167 3.16667 17.2385 3.16667 17.0208V15.4375C3.16667 15.2198 2.98854 15.0417 2.77083 15.0417H1.1875Z" fill="black"/>
<path d="M18.604 3.95841H5.93734C5.71884 3.95841 5.5415 3.78108 5.5415 3.56258C5.5415 3.34408 5.71884 3.16675 5.93734 3.16675H18.604C18.8225 3.16675 18.9998 3.34408 18.9998 3.56258C18.9998 3.78108 18.8225 3.95841 18.604 3.95841Z" fill="black"/>
<path d="M18.604 10.2917H5.93734C5.71884 10.2917 5.5415 10.1143 5.5415 9.89583C5.5415 9.67733 5.71884 9.5 5.93734 9.5H18.604C18.8225 9.5 18.9998 9.67733 18.9998 9.89583C18.9998 10.1143 18.8225 10.2917 18.604 10.2917Z" fill="black"/>
<path d="M18.604 16.6249H5.93734C5.71884 16.6249 5.5415 16.4476 5.5415 16.2291C5.5415 16.0106 5.71884 15.8333 5.93734 15.8333H18.604C18.8225 15.8333 18.9998 16.0106 18.9998 16.2291C18.9998 16.4476 18.8225 16.6249 18.604 16.6249Z" fill="black"/>
</g>
<defs>
<clipPath id="clip0">
<rect width="19" height="19" fill="white"/>
</clipPath>
</defs>
</svg>
