<svg width="170" height="200" viewBox="0 0 170 200" fill="none" xmlns="http://www.w3.org/2000/svg">
<path d="M152.26 200H17.2666C12.6888 199.995 8.29997 198.108 5.06298 194.755C1.82598 191.402 0.00517107 186.856 0 182.114V17.8862C0.00517107 13.1441 1.82598 8.59781 5.06298 5.24466C8.29997 1.89151 12.6888 0.00535663 17.2666 0H142.856L169.526 22.0211V182.114C169.521 186.856 167.7 191.402 164.463 194.755C161.226 198.108 156.838 199.995 152.26 200Z" fill="#E6E6E6"/>
<path d="M17.1739 5.03943C13.9095 5.04324 10.7798 6.38796 8.47149 8.77857C6.16318 11.1692 4.86476 14.4105 4.86108 17.7913V182.209C4.86476 185.59 6.16318 188.831 8.47149 191.222C10.7798 193.612 13.9095 194.957 17.1739 194.961H152.353C155.617 194.957 158.747 193.612 161.055 191.222C163.363 188.831 164.662 185.59 164.666 182.209V24.4144L141.195 5.03943H17.1739Z" fill="white"/>
<path d="M125.943 52.9133H64.546C64.1688 52.9133 63.7953 52.8359 63.4468 52.6856C63.0983 52.5352 62.7816 52.3148 62.5149 52.037C62.2482 51.7591 62.0366 51.4293 61.8922 51.0662C61.7479 50.7032 61.6736 50.3141 61.6736 49.9212C61.6736 49.5283 61.7479 49.1392 61.8922 48.7762C62.0366 48.4131 62.2482 48.0833 62.5149 47.8055C62.7816 47.5276 63.0983 47.3072 63.4468 47.1568C63.7953 47.0065 64.1688 46.9291 64.546 46.9291H125.943C126.321 46.9291 126.694 47.0065 127.043 47.1568C127.391 47.3072 127.708 47.5276 127.974 47.8055C128.241 48.0833 128.453 48.4131 128.597 48.7762C128.741 49.1392 128.816 49.5283 128.816 49.9212C128.816 50.3141 128.741 50.7032 128.597 51.0662C128.453 51.4293 128.241 51.7591 127.974 52.037C127.708 52.3148 127.391 52.5352 127.043 52.6856C126.694 52.8359 126.321 52.9133 125.943 52.9133Z" fill="#CCCCCC"/>
<path d="M137.792 62.9921H64.546C63.7842 62.9921 63.0536 62.6768 62.5149 62.1157C61.9762 61.5546 61.6736 60.7935 61.6736 59.9999C61.6736 59.2064 61.9762 58.4453 62.5149 57.8842C63.0536 57.3231 63.7842 57.0078 64.546 57.0078H137.792C138.554 57.0078 139.284 57.3231 139.823 57.8842C140.362 58.4453 140.664 59.2064 140.664 59.9999C140.664 60.7935 140.362 61.5546 139.823 62.1157C139.284 62.6768 138.554 62.9921 137.792 62.9921Z" fill="#CCCCCC"/>
<path d="M125.943 97.9528H64.546C63.7842 97.9528 63.0536 97.6375 62.5149 97.0764C61.9762 96.5152 61.6736 95.7542 61.6736 94.9606C61.6736 94.1671 61.9762 93.406 62.5149 92.8449C63.0536 92.2837 63.7842 91.9685 64.546 91.9685H125.943C126.705 91.9685 127.436 92.2837 127.974 92.8449C128.513 93.406 128.816 94.1671 128.816 94.9606C128.816 95.7542 128.513 96.5152 127.974 97.0764C127.436 97.6375 126.705 97.9528 125.943 97.9528Z" fill="#CCCCCC"/>
<path d="M137.792 108.032H64.546C63.7842 108.032 63.0536 107.716 62.5149 107.155C61.9762 106.594 61.6736 105.833 61.6736 105.039C61.6736 104.246 61.9762 103.485 62.5149 102.924C63.0536 102.362 63.7842 102.047 64.546 102.047H137.792C138.554 102.047 139.284 102.362 139.823 102.924C140.362 103.485 140.664 104.246 140.664 105.039C140.664 105.833 140.362 106.594 139.823 107.155C139.284 107.716 138.554 108.032 137.792 108.032Z" fill="#CCCCCC"/>
<path d="M125.943 142.992H64.546C63.7842 142.992 63.0536 142.677 62.5149 142.116C61.9762 141.555 61.6736 140.794 61.6736 140C61.6736 139.206 61.9762 138.445 62.5149 137.884C63.0536 137.323 63.7842 137.008 64.546 137.008H125.943C126.705 137.008 127.436 137.323 127.974 137.884C128.513 138.445 128.816 139.206 128.816 140C128.816 140.794 128.513 141.555 127.974 142.116C127.436 142.677 126.705 142.992 125.943 142.992Z" fill="#CCCCCC"/>
<path d="M137.792 153.386H64.546C63.7842 153.386 63.0536 153.054 62.5149 152.463C61.9762 151.873 61.6736 151.072 61.6736 150.236C61.6736 149.401 61.9762 148.6 62.5149 148.009C63.0536 147.419 63.7842 147.087 64.546 147.087H137.792C138.554 147.087 139.284 147.419 139.823 148.009C140.362 148.6 140.664 149.401 140.664 150.236C140.664 151.072 140.362 151.873 139.823 152.463C139.284 153.054 138.554 153.386 137.792 153.386Z" fill="#CCCCCC"/>
<path d="M38.8877 65.5118C44.5925 65.5118 49.2172 60.7879 49.2172 54.9606C49.2172 49.1333 44.5925 44.4094 38.8877 44.4094C33.1828 44.4094 28.5581 49.1333 28.5581 54.9606C28.5581 60.7879 33.1828 65.5118 38.8877 65.5118Z" fill="#7A9ACC"/>
<path d="M37.7786 59.2126C37.55 59.2131 37.3275 59.1347 37.1446 58.9894L37.1332 58.9804L34.7454 57.0447C34.5223 56.8631 34.3764 56.5951 34.3396 56.2996C34.3029 56.0041 34.3784 55.7052 34.5496 55.4687C34.7207 55.2321 34.9735 55.0772 35.2523 55.0381C35.5311 54.9989 35.8132 55.0787 36.0366 55.2598L37.5833 56.5167L41.2382 51.4638C41.3229 51.3467 41.4286 51.2484 41.5492 51.1745C41.6698 51.1006 41.803 51.0527 41.9411 51.0334C42.0792 51.014 42.2195 51.0237 42.3541 51.0619C42.4886 51.1 42.6148 51.1659 42.7253 51.2557L42.7256 51.2559L42.703 51.2893L42.7263 51.2559C42.9493 51.4376 43.0952 51.7055 43.132 52.001C43.1688 52.2966 43.0934 52.5955 42.9225 52.8322L38.6235 58.7728C38.5241 58.9097 38.3962 59.0204 38.2498 59.0965C38.1034 59.1725 37.9425 59.2118 37.7795 59.2113L37.7786 59.2126Z" fill="white"/>
<path d="M40.103 110.551C45.8079 110.551 50.4326 105.827 50.4326 100C50.4326 94.1728 45.8079 89.4489 40.103 89.4489C34.3981 89.4489 29.7734 94.1728 29.7734 100C29.7734 105.827 34.3981 110.551 40.103 110.551Z" fill="#CCCCCC"/>
<path d="M38.8877 155.905C44.5925 155.905 49.2172 151.111 49.2172 145.197C49.2172 139.283 44.5925 134.488 38.8877 134.488C33.1828 134.488 28.5581 139.283 28.5581 145.197C28.5581 151.111 33.1828 155.905 38.8877 155.905Z" fill="#CCCCCC"/>
<path d="M168.863 22.6771H147.942C146.415 22.6771 144.95 22.0482 143.87 20.9286C142.79 19.809 142.184 18.2905 142.184 16.7071V0.688074C142.184 0.617941 142.203 0.549222 142.239 0.489809C142.275 0.430395 142.326 0.382688 142.387 0.352156C142.448 0.321624 142.516 0.309504 142.583 0.317187C142.65 0.324871 142.714 0.352045 142.767 0.395595L169.086 22.0115C169.145 22.0596 169.188 22.1255 169.208 22.1998C169.229 22.2742 169.227 22.3535 169.203 22.4267C169.178 22.4998 169.132 22.5633 169.071 22.6082C169.01 22.653 168.938 22.6771 168.863 22.6771Z" fill="#E6E6E6"/>
</svg>
