<svg width="262" height="260" viewBox="0 0 262 260" fill="none" xmlns="http://www.w3.org/2000/svg">
<g opacity="0.5">
<path opacity="0.5" d="M39.6477 81.7973C60.9668 81.7973 78.2493 63.9634 78.2493 41.9641C78.2493 19.9649 60.9668 2.13098 39.6477 2.13098C18.3287 2.13098 1.04614 19.9649 1.04614 41.9641C1.04614 63.9634 18.3287 81.7973 39.6477 81.7973Z" fill="url(#paint0_linear)"/>
</g>
<path d="M39.6476 80.7387C60.516 80.7387 77.4331 63.2818 77.4331 41.7477C77.4331 20.2135 60.516 2.75659 39.6476 2.75659C18.7792 2.75659 1.86206 20.2135 1.86206 41.7477C1.86206 63.2818 18.7792 80.7387 39.6476 80.7387Z" fill="white"/>
<path d="M39.7535 80.8487C47.1373 80.8613 54.3614 78.6306 60.5249 74.435C59.1326 66.5845 53.8332 66.1343 53.8332 66.1343H24.618C24.618 66.1343 19.6217 66.557 18.0562 73.7819C24.4082 78.3925 31.9875 80.8611 39.7535 80.8487Z" fill="#7A9ACC"/>
<path d="M39.357 58.1738C48.6083 58.1738 56.108 50.4348 56.108 40.8883C56.108 31.3419 48.6083 23.6029 39.357 23.6029C30.1056 23.6029 22.606 31.3419 22.606 40.8883C22.606 50.4348 30.1056 58.1738 39.357 58.1738Z" fill="#333333"/>
<path opacity="0.1" d="M33.4714 56.5652H45.1595V66.2133C45.1595 67.8122 44.544 69.3456 43.4483 70.4763C42.3527 71.6069 40.8666 72.242 39.3171 72.242C37.7676 72.242 36.2816 71.6069 35.186 70.4763C34.0903 69.3456 33.4748 67.8122 33.4748 66.2133V56.5652H33.4714Z" fill="black"/>
<path d="M34.5874 56.1184H44.0437C44.3397 56.1184 44.6235 56.2397 44.8328 56.4557C45.042 56.6716 45.1596 56.9645 45.1596 57.2699V65.7665C45.1596 67.3654 44.5441 68.8989 43.4484 70.0295C42.3527 71.1601 40.8667 71.7953 39.3172 71.7953C37.7677 71.7953 36.2817 71.1601 35.186 70.0295C34.0904 68.8989 33.4749 67.3654 33.4749 65.7665V57.2699C33.4749 56.9651 33.592 56.6727 33.8005 56.4569C34.009 56.241 34.292 56.1193 34.5874 56.1184Z" fill="#BE7C5E"/>
<path opacity="0.1" d="M33.4946 61.1194C37.2614 62.5722 41.4079 62.5844 45.1827 61.1538V59.6724H33.4946V61.1194Z" fill="black"/>
<path d="M39.357 61.9272C48.6083 61.9272 56.108 54.1883 56.108 44.6418C56.108 35.0953 48.6083 27.3563 39.357 27.3563C30.1056 27.3563 22.606 35.0953 22.606 44.6418C22.606 54.1883 30.1056 61.9272 39.357 61.9272Z" fill="#BE7C5E"/>
<path d="M29.208 37.5131C29.4045 36.7672 29.651 35.9457 30.3005 35.5573C30.8134 35.248 31.4496 35.2961 32.0425 35.327C36.6725 35.5883 41.2624 34.4987 45.7658 33.361C48.3405 32.7114 51.0952 31.9208 52.7606 29.7795C54.4261 27.6381 52.2543 20.9082 49.7195 20.1142C48.0541 19.5883 46.1222 20.5679 44.5433 19.798C43.8405 19.4543 43.3242 18.8115 42.718 18.3097C41.4756 17.2786 39.8801 16.8627 38.3346 16.4708C36.5292 16.0102 34.5773 15.56 32.8619 16.299C31.5296 16.8695 30.557 18.076 29.2946 18.7909C26.893 20.1658 23.9651 19.5265 21.2138 19.5196C20.2845 19.5196 19.1753 19.7121 18.8056 20.592C18.5558 21.19 18.7556 21.8706 18.7823 22.5202C18.8622 24.5825 17.2135 26.1877 15.8311 27.6759C14.4488 29.1642 13.1431 31.2884 14.0158 33.1376C14.3489 33.8422 14.9584 34.375 15.3049 35.0727C15.9011 36.2826 15.6013 37.7434 15.8178 39.0804C16.0346 40.095 16.402 41.0689 16.907 41.9676C17.9329 44.0299 23.0858 55.1319 25.4541 52.31C26.5999 50.9352 26.7864 46.9618 27.2494 45.1745C27.8889 42.6058 28.5418 40.052 29.208 37.5131Z" fill="#333333"/>
<path d="M27.4392 47.0271C28.3002 47.0271 28.9981 45.6775 28.9981 44.0127C28.9981 42.3479 28.3002 40.9983 27.4392 40.9983C26.5783 40.9983 25.8804 42.3479 25.8804 44.0127C25.8804 45.6775 26.5783 47.0271 27.4392 47.0271Z" fill="#BE7C5E"/>
<g opacity="0.5">
<path opacity="0.5" d="M129.034 168.493C150.353 168.493 167.636 150.659 167.636 128.659C167.636 106.66 150.353 88.8263 129.034 88.8263C107.715 88.8263 90.4329 106.66 90.4329 128.659C90.4329 150.659 107.715 168.493 129.034 168.493Z" fill="url(#paint1_linear)"/>
</g>
<path d="M129.108 167.396C149.976 167.396 166.893 149.939 166.893 128.405C166.893 106.871 149.976 89.4141 129.108 89.4141C108.239 89.4141 91.3223 106.871 91.3223 128.405C91.3223 149.939 108.239 167.396 129.108 167.396Z" fill="white"/>
<path d="M129.141 167.551C136.52 167.561 143.739 165.33 149.899 161.137C148.507 153.287 143.207 152.836 143.207 152.836H114.002C114.002 152.836 109.006 153.259 107.44 160.484C113.793 165.095 121.374 167.564 129.141 167.551Z" fill="#7A9ACC"/>
<path d="M128.741 146.406C138.815 146.406 146.981 137.979 146.981 127.584C146.981 117.189 138.815 108.762 128.741 108.762C118.668 108.762 110.501 117.189 110.501 127.584C110.501 137.979 118.668 146.406 128.741 146.406Z" fill="#F55F44"/>
<path opacity="0.1" d="M122.855 143.26H134.544V152.909C134.544 154.508 133.928 156.041 132.832 157.172C131.737 158.302 130.251 158.937 128.701 158.937C127.152 158.937 125.666 158.302 124.57 157.172C123.474 156.041 122.859 154.508 122.859 152.909V143.26H122.855Z" fill="black"/>
<path d="M123.971 142.814H133.428C133.574 142.814 133.719 142.844 133.855 142.901C133.99 142.959 134.113 143.044 134.217 143.151C134.32 143.258 134.403 143.385 134.459 143.525C134.515 143.664 134.544 143.814 134.544 143.965V152.462C134.544 153.254 134.393 154.037 134.099 154.769C133.805 155.5 133.375 156.165 132.832 156.725C132.29 157.285 131.646 157.729 130.937 158.032C130.228 158.335 129.468 158.491 128.701 158.491C127.934 158.491 127.174 158.335 126.465 158.032C125.757 157.729 125.113 157.285 124.57 156.725C124.028 156.165 123.597 155.5 123.304 154.769C123.01 154.037 122.859 153.254 122.859 152.462V143.965C122.859 143.66 122.976 143.367 123.186 143.151C123.395 142.935 123.679 142.814 123.975 142.814H123.971Z" fill="#FDA57D"/>
<path opacity="0.1" d="M122.879 147.815C126.646 149.268 130.792 149.28 134.567 147.849V146.368H122.879V147.815Z" fill="black"/>
<path d="M128.741 148.622C137.993 148.622 145.492 140.884 145.492 131.337C145.492 121.791 137.993 114.052 128.741 114.052C119.49 114.052 111.99 121.791 111.99 131.337C111.99 140.884 119.49 148.622 128.741 148.622Z" fill="#FDA57D"/>
<path d="M128.718 115.396C132.441 115.396 135.46 112.281 135.46 108.439C135.46 104.597 132.441 101.482 128.718 101.482C124.995 101.482 121.976 104.597 121.976 108.439C121.976 112.281 124.995 115.396 128.718 115.396Z" fill="#F55F44"/>
<path d="M128.718 106.156C131.163 106.156 133.145 104.111 133.145 101.588C133.145 99.0657 131.163 97.0205 128.718 97.0205C126.273 97.0205 124.291 99.0657 124.291 101.588C124.291 104.111 126.273 106.156 128.718 106.156Z" fill="#F55F44"/>
<path d="M125.793 112.254C124.212 111.522 122.964 110.189 122.31 108.533C121.655 106.876 121.645 105.023 122.279 103.359C122.233 103.455 122.186 103.555 122.143 103.654C121.78 104.488 121.581 105.387 121.555 106.3C121.529 107.214 121.678 108.123 121.993 108.977C122.308 109.831 122.783 110.613 123.391 111.277C123.999 111.942 124.727 112.476 125.535 112.85C126.343 113.224 127.215 113.43 128.1 113.457C128.985 113.483 129.866 113.33 130.694 113.005C131.521 112.679 132.279 112.189 132.923 111.562C133.567 110.935 134.085 110.183 134.447 109.35C134.49 109.25 134.53 109.15 134.57 109.047C133.788 110.644 132.439 111.868 130.805 112.465C129.17 113.062 127.375 112.987 125.793 112.254Z" fill="#F55F44"/>
<path opacity="0.1" d="M116.813 115.616C116.813 115.616 123.872 130.395 143.794 121.802L139.157 114.299L130.94 111.254L116.813 115.616Z" fill="black"/>
<path d="M116.813 115.396C116.813 115.396 123.872 130.175 143.794 121.582L139.157 114.079L130.94 111.034L116.813 115.396Z" fill="#F55F44"/>
<path d="M122.253 110.013C126.596 109.66 130.96 109.66 135.303 110.013C135.303 110.013 125.664 110.937 122.253 110.013Z" fill="#333333"/>
<path d="M129.73 96.7421C129.396 96.7294 129.06 96.7559 128.731 96.8211H128.988C130.078 96.8571 131.117 97.3075 131.905 98.0858C132.693 98.864 133.174 99.9153 133.257 101.038C133.34 102.16 133.017 103.274 132.352 104.166C131.687 105.059 130.726 105.666 129.654 105.871C130.827 105.882 131.956 105.412 132.793 104.563C133.63 103.715 134.107 102.558 134.117 101.348C134.128 100.137 133.672 98.9719 132.85 98.1082C132.028 97.2444 130.907 96.753 129.734 96.7421H129.73Z" fill="#F55F44"/>
<path d="M111.987 134.334C112.848 134.334 113.546 132.985 113.546 131.32C113.546 129.655 112.848 128.305 111.987 128.305C111.126 128.305 110.428 129.655 110.428 131.32C110.428 132.985 111.126 134.334 111.987 134.334Z" fill="#FDA57D"/>
<path d="M145.492 134.334C146.353 134.334 147.051 132.985 147.051 131.32C147.051 129.655 146.353 128.305 145.492 128.305C144.631 128.305 143.933 129.655 143.933 131.32C143.933 132.985 144.631 134.334 145.492 134.334Z" fill="#FDA57D"/>
<path d="M115.758 115.832L119.025 114.093L119.761 116.88L117.759 118.286L115.758 115.832Z" fill="#F55F44"/>
<g opacity="0.5">
<path opacity="0.5" d="M128.998 79.8416C150.317 79.8416 167.599 62.0077 167.599 40.0085C167.599 18.0092 150.317 0.175293 128.998 0.175293C107.679 0.175293 90.396 18.0092 90.396 40.0085C90.396 62.0077 107.679 79.8416 128.998 79.8416Z" fill="url(#paint2_linear)"/>
</g>
<path d="M128.998 78.783C149.866 78.783 166.783 61.3261 166.783 39.792C166.783 18.2578 149.866 0.800903 128.998 0.800903C108.129 0.800903 91.2122 18.2578 91.2122 39.792C91.2122 61.3261 108.129 78.783 128.998 78.783Z" fill="white"/>
<path d="M114.259 40.139C114.259 40.139 109.975 61.9168 107.637 60.7104C107.637 60.7104 130.187 80.8109 150.099 60.7104C150.099 60.7104 146.591 45.3635 141.528 40.139H114.259Z" fill="#333333"/>
<path d="M129.104 78.8999C136.488 78.9124 143.712 76.6818 149.876 72.4862C148.483 64.6357 143.184 64.1854 143.184 64.1854H113.965C113.965 64.1854 108.969 64.6082 107.404 71.8331C113.757 76.4443 121.337 78.9129 129.104 78.8999Z" fill="#7A9ACC"/>
<path d="M128.705 56.2181C137.956 56.2181 145.456 48.4792 145.456 38.9327C145.456 29.3862 137.956 21.6472 128.705 21.6472C119.453 21.6472 111.954 29.3862 111.954 38.9327C111.954 48.4792 119.453 56.2181 128.705 56.2181Z" fill="#333333"/>
<path opacity="0.1" d="M122.819 54.6095H134.507V64.2576C134.507 65.8547 133.893 67.3866 132.799 68.5169C131.706 69.6472 130.222 70.2836 128.675 70.2864C127.125 70.2864 125.639 69.6512 124.543 68.5206C123.448 67.39 122.832 65.8565 122.832 64.2576V54.6095H122.819Z" fill="black"/>
<path d="M123.935 54.1626H133.391C133.687 54.1626 133.971 54.2839 134.18 54.4998C134.389 54.7158 134.507 55.0087 134.507 55.314V63.8107C134.507 65.4078 133.893 66.9397 132.799 68.07C131.706 69.2004 130.222 69.8367 128.675 69.8395C127.125 69.8395 125.639 69.2043 124.543 68.0737C123.448 66.9431 122.832 65.4096 122.832 63.8107V55.3106C122.833 55.0082 122.949 54.7183 123.156 54.5034C123.362 54.2886 123.642 54.1662 123.935 54.1626Z" fill="#BE7C5E"/>
<path opacity="0.1" d="M122.842 59.1637C126.609 60.6165 130.756 60.6287 134.53 59.1981V57.7167H122.842V59.1637Z" fill="black"/>
<path d="M128.705 59.968C137.956 59.968 145.456 52.229 145.456 42.6825C145.456 33.1361 137.956 25.3971 128.705 25.3971C119.453 25.3971 111.954 33.1361 111.954 42.6825C111.954 52.229 119.453 59.968 128.705 59.968Z" fill="#BE7C5E"/>
<path d="M112.693 36.1175H144.636C144.636 36.1175 141.908 22.8089 129.834 23.6579C117.759 24.5068 112.693 36.1175 112.693 36.1175Z" fill="#333333"/>
<path d="M112.3 44.9614C113.161 44.9614 113.859 43.6118 113.859 41.947C113.859 40.2822 113.161 38.9326 112.3 38.9326C111.439 38.9326 110.741 40.2822 110.741 41.947C110.741 43.6118 111.439 44.9614 112.3 44.9614Z" fill="#BE7C5E"/>
<path d="M145.023 44.9614C145.884 44.9614 146.582 43.6118 146.582 41.947C146.582 40.2822 145.884 38.9326 145.023 38.9326C144.162 38.9326 143.464 40.2822 143.464 41.947C143.464 43.6118 144.162 44.9614 145.023 44.9614Z" fill="#BE7C5E"/>
<path opacity="0.1" d="M112.693 36.5644H144.636C144.636 36.5644 141.908 23.2558 129.834 24.1048C117.759 24.9537 112.693 36.5644 112.693 36.5644Z" fill="black"/>
<g opacity="0.5">
<path opacity="0.5" d="M221.017 79.6663C242.336 79.6663 259.618 61.8324 259.618 39.8332C259.618 17.8339 242.336 0 221.017 0C199.698 0 182.415 17.8339 182.415 39.8332C182.415 61.8324 199.698 79.6663 221.017 79.6663Z" fill="url(#paint3_linear)"/>
</g>
<path d="M221.09 78.5665C241.958 78.5665 258.875 61.1096 258.875 39.5754C258.875 18.0412 241.958 0.584351 221.09 0.584351C200.222 0.584351 183.304 18.0412 183.304 39.5754C183.304 61.1096 200.222 78.5665 221.09 78.5665Z" fill="white"/>
<path d="M221.123 78.7246C228.507 78.7371 235.731 76.5065 241.895 72.3109C240.499 64.457 235.203 64.0067 235.203 64.0067H205.988C205.988 64.0067 200.992 64.4295 199.426 71.6544C205.778 76.2662 213.357 78.736 221.123 78.7246Z" fill="#7A9ACC"/>
<path d="M220.727 57.5757C230.801 57.5757 238.967 49.1489 238.967 38.7539C238.967 28.3588 230.801 19.932 220.727 19.932C210.653 19.932 202.487 28.3588 202.487 38.7539C202.487 49.1489 210.653 57.5757 220.727 57.5757Z" fill="#72351C"/>
<path opacity="0.1" d="M214.838 54.4308H226.526V64.0789C226.527 64.8714 226.377 65.6565 226.084 66.3891C225.791 67.1218 225.361 67.7876 224.818 68.3485C224.276 68.9094 223.631 69.3544 222.922 69.6581C222.212 69.9617 221.452 70.118 220.684 70.1179C219.134 70.1179 217.648 69.4828 216.552 68.3522C215.457 67.2216 214.841 65.6881 214.841 64.0892V54.4308H214.838Z" fill="black"/>
<path d="M215.944 53.9839H225.4C225.696 53.9839 225.98 54.1052 226.189 54.3211C226.398 54.5371 226.516 54.83 226.516 55.1353V63.632C226.516 65.2309 225.901 66.7643 224.805 67.895C223.709 69.0256 222.223 69.6607 220.674 69.6607C219.124 69.6607 217.638 69.0256 216.543 67.895C215.447 66.7643 214.831 65.2309 214.831 63.632V55.1353C214.831 54.83 214.949 54.5371 215.158 54.3211C215.367 54.1052 215.651 53.9839 215.947 53.9839H215.944Z" fill="#FDA57D"/>
<path opacity="0.1" d="M214.851 58.985C218.618 60.4378 222.765 60.45 226.539 59.0194V57.538H214.851V58.985Z" fill="black"/>
<path d="M220.727 59.7927C229.978 59.7927 237.478 52.0537 237.478 42.5072C237.478 32.9608 229.978 25.2218 220.727 25.2218C211.476 25.2218 203.976 32.9608 203.976 42.5072C203.976 52.0537 211.476 59.7927 220.727 59.7927Z" fill="#FDA57D"/>
<path opacity="0.1" d="M208.796 26.7857C208.796 26.7857 215.854 41.5655 235.776 32.9726L231.139 25.4693L222.922 22.424L208.796 26.7857Z" fill="black"/>
<path d="M208.796 26.5691C208.796 26.5691 215.854 41.3489 235.776 32.756L231.139 25.2527L222.922 22.2074L208.796 26.5691Z" fill="#72351C"/>
<path d="M208.733 25.569C209.208 24.0487 210.031 22.6685 211.131 21.5441C214.425 18.1826 219.828 17.4745 222.599 13.6387C222.75 13.9101 222.843 14.2112 222.874 14.5224C222.905 14.8335 222.872 15.1479 222.778 15.4452C222.684 15.7426 222.53 16.0162 222.327 16.2485C222.125 16.4808 221.877 16.6666 221.6 16.794C224.264 16.7768 227.332 16.5362 228.831 14.2814C229.202 15.1724 229.32 16.1538 229.172 17.1114C229.024 18.0691 228.616 18.9637 227.995 19.6915C230.347 19.8015 232.858 21.4479 233.011 23.8745C233.111 25.49 232.132 27.0195 230.843 27.9475C229.554 28.8756 228.002 29.2915 226.469 29.6352C221.999 30.6663 205.815 34.9318 208.733 25.569Z" fill="#72351C"/>
<path d="M237.478 42.6586H237.035L228.395 50.6018C220.067 46.5804 213.959 50.6018 213.959 50.6018L204.898 42.992L203.986 43.1088C204.109 47.6457 205.957 51.9504 209.13 55.0934C212.303 58.2364 216.547 59.9655 220.945 59.9072C225.343 59.849 229.542 58.0082 232.636 54.7822C235.73 51.5563 237.47 47.2041 237.481 42.6654L237.478 42.6586ZM220.704 53.6403C217.446 53.6403 214.805 52.9528 214.805 52.1176C214.805 51.2824 217.446 50.595 220.704 50.595C223.961 50.595 226.603 51.2824 226.603 52.1176C226.603 52.9528 223.961 53.6403 220.7 53.6403H220.704Z" fill="#72351C"/>
<path d="M203.969 45.5045C204.83 45.5045 205.528 44.1549 205.528 42.4901C205.528 40.8253 204.83 39.4757 203.969 39.4757C203.108 39.4757 202.41 40.8253 202.41 42.4901C202.41 44.1549 203.108 45.5045 203.969 45.5045Z" fill="#FDA57D"/>
<path d="M237.475 45.5045C238.336 45.5045 239.033 44.1549 239.033 42.4901C239.033 40.8253 238.336 39.4757 237.475 39.4757C236.614 39.4757 235.916 40.8253 235.916 42.4901C235.916 44.1549 236.614 45.5045 237.475 45.5045Z" fill="#FDA57D"/>
<g opacity="0.5">
<path opacity="0.5" d="M39.3704 165.884C60.6895 165.884 77.972 148.05 77.972 126.051C77.972 104.051 60.6895 86.2175 39.3704 86.2175C18.0513 86.2175 0.768799 104.051 0.768799 126.051C0.768799 148.05 18.0513 165.884 39.3704 165.884Z" fill="url(#paint4_linear)"/>
</g>
<path d="M39.4445 164.787C60.3128 164.787 77.23 147.331 77.23 125.796C77.23 104.262 60.3128 86.8053 39.4445 86.8053C18.5761 86.8053 1.65894 104.262 1.65894 125.796C1.65894 147.331 18.5761 164.787 39.4445 164.787Z" fill="white"/>
<path d="M39.477 164.942C46.8596 164.954 54.0824 162.723 60.245 158.528C58.8527 150.678 53.5533 150.228 53.5533 150.228H24.3248C24.3248 150.228 19.3285 150.65 17.7629 157.875C24.1196 162.489 31.7053 164.958 39.477 164.942Z" fill="#7A9ACC"/>
<path d="M39.0773 143.797C49.1509 143.797 57.3172 135.37 57.3172 124.975C57.3172 114.58 49.1509 106.153 39.0773 106.153C29.0037 106.153 20.8374 114.58 20.8374 124.975C20.8374 135.37 29.0037 143.797 39.0773 143.797Z" fill="#333333"/>
<path opacity="0.1" d="M33.1917 140.652H44.8797V150.3C44.8797 151.899 44.2642 153.432 43.1685 154.563C42.0729 155.693 40.5868 156.329 39.0373 156.329C37.4879 156.329 36.0018 155.693 34.9062 154.563C33.8105 153.432 33.195 151.899 33.195 150.3V140.652H33.1917Z" fill="black"/>
<path d="M34.3075 140.205H43.7639C44.0598 140.205 44.3436 140.326 44.5529 140.542C44.7622 140.758 44.8797 141.051 44.8797 141.356V149.86C44.8797 151.459 44.2642 152.992 43.1685 154.123C42.0729 155.253 40.5868 155.889 39.0373 155.889C38.2698 155.889 37.5098 155.733 36.8005 155.431C36.0913 155.128 35.4469 154.684 34.904 154.124C34.3612 153.564 33.9305 152.899 33.6367 152.168C33.3429 151.436 33.1917 150.652 33.1917 149.86V141.353C33.1917 141.047 33.3092 140.755 33.5185 140.539C33.7277 140.323 34.0116 140.201 34.3075 140.201V140.205Z" fill="#FDB797"/>
<path opacity="0.1" d="M33.2151 145.206C36.9819 146.659 41.1284 146.671 44.9032 145.24V143.749H33.2151V145.206Z" fill="black"/>
<path d="M39.0772 146.014C48.3285 146.014 55.8282 138.275 55.8282 128.728C55.8282 119.182 48.3285 111.443 39.0772 111.443C29.8259 111.443 22.3262 119.182 22.3262 128.728C22.3262 138.275 29.8259 146.014 39.0772 146.014Z" fill="#FDB797"/>
<path opacity="0.1" d="M27.1494 113.003C27.1494 113.003 34.2076 127.783 54.1296 119.19L49.493 111.687L41.2757 108.642L27.1494 113.003Z" fill="black"/>
<path d="M27.1494 112.787C27.1494 112.787 34.2076 127.567 54.1296 118.974L49.493 111.47L41.2757 108.425L27.1494 112.787Z" fill="#333333"/>
<path d="M27.0861 111.783C27.5619 110.263 28.3844 108.883 29.4843 107.758C32.7786 104.397 38.1813 103.689 40.9525 99.8528C41.1031 100.124 41.1969 100.425 41.2277 100.736C41.2586 101.048 41.2259 101.362 41.1317 101.659C41.0376 101.957 40.884 102.23 40.6811 102.463C40.4781 102.695 40.2302 102.881 39.9533 103.008C42.618 102.991 45.6857 102.75 47.1846 100.496C47.5556 101.387 47.6739 102.368 47.526 103.326C47.378 104.283 46.9697 105.178 46.3486 105.906C48.7002 106.016 51.2117 107.662 51.3649 110.089C51.4648 111.704 50.4855 113.234 49.1965 114.162C47.9074 115.09 46.3519 115.512 44.8197 115.863C40.3497 116.887 24.1682 121.153 27.0861 111.783Z" fill="#333333"/>
<path d="M22.3196 131.725C23.1805 131.725 23.8784 130.376 23.8784 128.711C23.8784 127.046 23.1805 125.697 22.3196 125.697C21.4587 125.697 20.7607 127.046 20.7607 128.711C20.7607 130.376 21.4587 131.725 22.3196 131.725Z" fill="#FDB797"/>
<path d="M55.825 131.725C56.6859 131.725 57.3838 130.376 57.3838 128.711C57.3838 127.046 56.6859 125.697 55.825 125.697C54.964 125.697 54.2661 127.046 54.2661 128.711C54.2661 130.376 54.964 131.725 55.825 131.725Z" fill="#FDB797"/>
<g opacity="0.5">
<path opacity="0.5" d="M222.456 170.301C243.775 170.301 261.057 152.467 261.057 130.467C261.057 108.468 243.775 90.6343 222.456 90.6343C201.137 90.6343 183.854 108.468 183.854 130.467C183.854 152.467 201.137 170.301 222.456 170.301Z" fill="url(#paint5_linear)"/>
</g>
<path d="M222.456 169.242C243.324 169.242 260.241 151.785 260.241 130.251C260.241 108.717 243.324 91.2599 222.456 91.2599C201.587 91.2599 184.67 108.717 184.67 130.251C184.67 151.785 201.587 169.242 222.456 169.242Z" fill="white"/>
<path d="M222.562 169.359C229.946 169.371 237.17 167.141 243.334 162.945C241.941 155.095 236.642 154.644 236.642 154.644H207.423C207.423 154.644 202.427 155.067 200.862 162.292C207.215 166.903 214.795 169.372 222.562 169.359Z" fill="#7A9ACC"/>
<path opacity="0.1" d="M216.277 145.068H227.965V154.717C227.965 156.315 227.349 157.849 226.254 158.98C225.158 160.11 223.672 160.745 222.123 160.745C221.355 160.746 220.595 160.59 219.886 160.287C219.177 159.985 218.532 159.541 217.989 158.981C217.446 158.421 217.016 157.756 216.722 157.024C216.428 156.293 216.277 155.509 216.277 154.717V145.068Z" fill="black"/>
<path d="M217.393 144.622H226.849C227.145 144.622 227.429 144.743 227.638 144.959C227.847 145.175 227.965 145.468 227.965 145.773V154.27C227.965 155.869 227.349 157.402 226.254 158.533C225.158 159.663 223.672 160.299 222.123 160.299C221.355 160.299 220.595 160.143 219.886 159.841C219.177 159.538 218.532 159.094 217.989 158.534C217.446 157.974 217.016 157.309 216.722 156.578C216.428 155.846 216.277 155.062 216.277 154.27V145.773C216.277 145.468 216.394 145.175 216.604 144.959C216.813 144.743 217.097 144.622 217.393 144.622Z" fill="#FDB797"/>
<path opacity="0.1" d="M216.3 149.623C220.067 151.075 224.213 151.088 227.988 149.657V148.176H216.3V149.623Z" fill="black"/>
<path d="M222.163 150.43C231.414 150.43 238.914 142.692 238.914 133.145C238.914 123.599 231.414 115.86 222.163 115.86C212.911 115.86 205.412 123.599 205.412 133.145C205.412 142.692 212.911 150.43 222.163 150.43Z" fill="#FDB797"/>
<path d="M205.758 135.42C206.619 135.42 207.317 134.071 207.317 132.406C207.317 130.741 206.619 129.392 205.758 129.392C204.897 129.392 204.199 130.741 204.199 132.406C204.199 134.071 204.897 135.42 205.758 135.42Z" fill="#FDB797"/>
<path d="M238.48 135.42C239.341 135.42 240.039 134.071 240.039 132.406C240.039 130.741 239.341 129.392 238.48 129.392C237.62 129.392 236.922 130.741 236.922 132.406C236.922 134.071 237.62 135.42 238.48 135.42Z" fill="#FDB797"/>
<path d="M217.673 133.228H213.406C212.605 133.228 211.957 133.897 211.957 134.723V135.431C211.957 136.257 212.605 136.926 213.406 136.926H217.673C218.473 136.926 219.121 136.257 219.121 135.431V134.723C219.121 133.897 218.473 133.228 217.673 133.228Z" stroke="#333333" stroke-width="2" stroke-miterlimit="10"/>
<path d="M226.656 136.922H230.923C231.723 136.922 232.372 136.253 232.372 135.427V134.719C232.372 133.893 231.723 133.224 230.923 133.224H226.656C225.856 133.224 225.207 133.893 225.207 134.719V135.427C225.207 136.253 225.856 136.922 226.656 136.922Z" stroke="#333333" stroke-width="2" stroke-miterlimit="10"/>
<path d="M218.848 133.585C218.848 133.585 221.12 132.313 225.344 133.585" stroke="#333333" stroke-width="2" stroke-miterlimit="10"/>
<path d="M233.744 120.617L237.854 130.471C237.854 130.471 242.881 123.933 233.744 120.617Z" fill="#858585"/>
<path d="M232.372 135.077L238.507 129.423" stroke="#333333" stroke-width="2" stroke-linecap="round" stroke-linejoin="round"/>
<path d="M210.588 120.617L206.477 130.471C206.477 130.471 201.451 123.933 210.588 120.617Z" fill="#858585"/>
<path d="M211.957 135.077L205.738 129.423" stroke="#333333" stroke-width="2" stroke-linecap="round" stroke-linejoin="round"/>
<g opacity="0.5">
<path opacity="0.5" d="M39.6477 255.432C60.9668 255.432 78.2493 237.598 78.2493 215.599C78.2493 193.6 60.9668 175.766 39.6477 175.766C18.3287 175.766 1.04614 193.6 1.04614 215.599C1.04614 237.598 18.3287 255.432 39.6477 255.432Z" fill="url(#paint6_linear)"/>
</g>
<path d="M39.6476 254.373C60.516 254.373 77.4331 236.917 77.4331 215.382C77.4331 193.848 60.516 176.391 39.6476 176.391C18.7792 176.391 1.86206 193.848 1.86206 215.382C1.86206 236.917 18.7792 254.373 39.6476 254.373Z" fill="white"/>
<path d="M60.5481 218.888C60.5481 233.249 51.4681 249.235 40.2664 249.235C29.0646 249.235 19.9946 233.249 19.9946 218.888C19.9946 204.528 29.0746 197.234 40.2764 197.234C51.4781 197.234 60.5481 204.531 60.5481 218.888Z" fill="#FDD835"/>
<path d="M39.7535 254.494C47.1373 254.506 54.3614 252.276 60.5249 248.08C59.1326 240.229 53.8332 239.779 53.8332 239.779H24.618C24.618 239.779 19.6217 240.202 18.0562 247.427C24.4082 252.037 31.9875 254.506 39.7535 254.494Z" fill="#7A9ACC"/>
<path opacity="0.1" d="M33.4714 230.2H45.1595V239.848C45.1595 241.447 44.544 242.98 43.4483 244.111C42.3527 245.242 40.8666 245.877 39.3171 245.877C37.7676 245.877 36.2816 245.242 35.186 244.111C34.0903 242.98 33.4748 241.447 33.4748 239.848V230.2H33.4714Z" fill="black"/>
<path d="M34.5874 229.753H44.0437C44.3397 229.753 44.6235 229.874 44.8328 230.09C45.042 230.306 45.1596 230.599 45.1596 230.904V239.401C45.1596 241 44.5441 242.534 43.4484 243.664C42.3527 244.795 40.8667 245.43 39.3172 245.43C37.7677 245.43 36.2817 244.795 35.186 243.664C34.0904 242.534 33.4749 241 33.4749 239.401V230.904C33.4749 230.6 33.592 230.307 33.8005 230.092C34.009 229.876 34.292 229.754 34.5874 229.753Z" fill="#FDB797"/>
<path opacity="0.1" d="M33.4946 234.754C37.2614 236.207 41.4079 236.219 45.1827 234.788V233.307H33.4946V234.754Z" fill="black"/>
<path d="M39.357 235.562C48.6083 235.562 56.108 227.823 56.108 218.276C56.108 208.73 48.6083 200.991 39.357 200.991C30.1056 200.991 22.606 208.73 22.606 218.276C22.606 227.823 30.1056 235.562 39.357 235.562Z" fill="#FDB797"/>
<path d="M22.9524 220.552C23.8133 220.552 24.5113 219.202 24.5113 217.537C24.5113 215.873 23.8133 214.523 22.9524 214.523C22.0915 214.523 21.3936 215.873 21.3936 217.537C21.3936 219.202 22.0915 220.552 22.9524 220.552Z" fill="#FDB797"/>
<path d="M55.6751 220.552C56.536 220.552 57.2339 219.202 57.2339 217.537C57.2339 215.873 56.536 214.523 55.6751 214.523C54.8141 214.523 54.1162 215.873 54.1162 217.537C54.1162 219.202 54.8141 220.552 55.6751 220.552Z" fill="#FDB797"/>
<path opacity="0.1" d="M24.5146 208.9C24.5146 208.9 33.9843 222.274 55.7017 217.706C55.7017 217.706 58.1266 214.66 52.2243 205.311C46.3219 195.962 29.8874 197.485 24.5146 208.9Z" fill="black"/>
<path d="M24.5146 208.683C24.5146 208.683 33.9843 222.057 55.7017 217.489C55.7017 217.489 58.1266 214.444 52.2243 205.095C46.3219 195.746 29.8874 197.269 24.5146 208.683Z" fill="#FDD835"/>
<g opacity="0.5">
<path opacity="0.5" d="M131.349 260C152.668 260 169.951 242.166 169.951 220.167C169.951 198.168 152.668 180.334 131.349 180.334C110.03 180.334 92.7478 198.168 92.7478 220.167C92.7478 242.166 110.03 260 131.349 260Z" fill="url(#paint7_linear)"/>
</g>
<path d="M131.426 258.904C152.294 258.904 169.211 241.447 169.211 219.912C169.211 198.378 152.294 180.921 131.426 180.921C110.558 180.921 93.6404 198.378 93.6404 219.912C93.6404 241.447 110.558 258.904 131.426 258.904Z" fill="white"/>
<path d="M152.214 223.755C152.214 236.727 143.184 243.11 131.456 243.11C119.728 243.11 109.752 236.727 109.752 223.755C109.752 210.783 119.258 200.269 130.983 200.269C142.708 200.269 152.214 210.773 152.214 223.755Z" fill="#333333"/>
<path d="M131.456 259.058C138.841 259.071 146.066 256.841 152.231 252.644C150.838 244.794 145.539 244.344 145.539 244.344H116.32C116.32 244.344 111.324 244.767 109.759 251.991C116.111 256.602 123.69 259.071 131.456 259.058Z" fill="#7A9ACC"/>
<path opacity="0.1" d="M125.174 234.758H136.862V244.406C136.863 245.199 136.713 245.986 136.419 246.719C136.125 247.453 135.694 248.119 135.15 248.68C134.606 249.241 133.96 249.686 133.249 249.989C132.538 250.292 131.776 250.447 131.006 250.445C129.457 250.445 127.971 249.81 126.875 248.679C125.78 247.548 125.164 246.015 125.164 244.416V234.758H125.174Z" fill="black"/>
<path d="M126.287 234.321H135.743C136.039 234.321 136.323 234.442 136.532 234.658C136.741 234.874 136.859 235.167 136.859 235.473V243.969C136.859 244.762 136.707 245.547 136.413 246.279C136.119 247.011 135.688 247.676 135.144 248.236C134.601 248.796 133.955 249.24 133.245 249.542C132.535 249.844 131.775 249.999 131.006 249.998C129.457 249.998 127.971 249.363 126.875 248.232C125.78 247.102 125.164 245.568 125.164 243.969V235.469C125.164 235.164 125.282 234.871 125.491 234.655C125.7 234.439 125.984 234.318 126.28 234.318L126.287 234.321Z" fill="#FDA57D"/>
<path opacity="0.1" d="M125.197 239.322C128.964 240.775 133.111 240.787 136.885 239.356V237.875H125.197V239.322Z" fill="black"/>
<path d="M131.06 240.126C140.311 240.126 147.811 232.387 147.811 222.841C147.811 213.294 140.311 205.555 131.06 205.555C121.808 205.555 114.309 213.294 114.309 222.841C114.309 232.387 121.808 240.126 131.06 240.126Z" fill="#FDA57D"/>
<path opacity="0.1" d="M111.754 223.972C111.754 223.972 122.186 222.666 130.074 212.23C130.074 212.23 140.506 224.082 147.774 222.776C147.774 222.776 151.988 218.208 147.774 213.643C143.561 209.079 140.293 203.314 134.71 204.074C129.128 204.834 122.276 205.16 119.328 207.879C116.38 210.598 111.754 223.972 111.754 223.972Z" fill="black"/>
<path d="M111.754 223.755C111.754 223.755 122.186 222.449 130.074 212.014C130.074 212.014 140.506 223.865 147.774 222.559C147.774 222.559 151.988 217.991 147.774 213.427C143.561 208.862 140.293 203.098 134.71 203.857C129.128 204.617 122.289 204.93 119.342 207.68C116.394 210.429 111.754 223.755 111.754 223.755Z" fill="#333333"/>
<path d="M114.302 225.842C115.163 225.842 115.861 224.492 115.861 222.827C115.861 221.162 115.163 219.813 114.302 219.813C113.441 219.813 112.743 221.162 112.743 222.827C112.743 224.492 113.441 225.842 114.302 225.842Z" fill="#FDA57D"/>
<path d="M147.807 225.842C148.668 225.842 149.366 224.492 149.366 222.827C149.366 221.162 148.668 219.813 147.807 219.813C146.946 219.813 146.249 221.162 146.249 222.827C146.249 224.492 146.946 225.842 147.807 225.842Z" fill="#FDA57D"/>
<defs>
<linearGradient id="paint0_linear" x1="39.6477" y1="81.7973" x2="39.6477" y2="2.13442" gradientUnits="userSpaceOnUse">
<stop stop-color="#808080" stop-opacity="0.25"/>
<stop offset="0.54" stop-color="#808080" stop-opacity="0.12"/>
<stop offset="1" stop-color="#808080" stop-opacity="0.1"/>
</linearGradient>
<linearGradient id="paint1_linear" x1="29819.8" y1="39142.1" x2="29819.8" y2="20677.8" gradientUnits="userSpaceOnUse">
<stop stop-color="#808080" stop-opacity="0.25"/>
<stop offset="0.54" stop-color="#808080" stop-opacity="0.12"/>
<stop offset="1" stop-color="#808080" stop-opacity="0.1"/>
</linearGradient>
<linearGradient id="paint2_linear" x1="29811.3" y1="18505.9" x2="29811.3" y2="40.8052" gradientUnits="userSpaceOnUse">
<stop stop-color="#808080" stop-opacity="0.25"/>
<stop offset="0.54" stop-color="#808080" stop-opacity="0.12"/>
<stop offset="1" stop-color="#808080" stop-opacity="0.1"/>
</linearGradient>
<linearGradient id="paint3_linear" x1="51231.5" y1="18464.3" x2="51231.5" y2="0" gradientUnits="userSpaceOnUse">
<stop stop-color="#808080" stop-opacity="0.25"/>
<stop offset="0.54" stop-color="#808080" stop-opacity="0.12"/>
<stop offset="1" stop-color="#808080" stop-opacity="0.1"/>
</linearGradient>
<linearGradient id="paint4_linear" x1="8947.84" y1="38534.8" x2="8947.84" y2="20070.5" gradientUnits="userSpaceOnUse">
<stop stop-color="#808080" stop-opacity="0.25"/>
<stop offset="0.54" stop-color="#808080" stop-opacity="0.12"/>
<stop offset="1" stop-color="#808080" stop-opacity="0.1"/>
</linearGradient>
<linearGradient id="paint5_linear" x1="51566.4" y1="39562.9" x2="51566.4" y2="21098.7" gradientUnits="userSpaceOnUse">
<stop stop-color="#808080" stop-opacity="0.25"/>
<stop offset="0.54" stop-color="#808080" stop-opacity="0.12"/>
<stop offset="1" stop-color="#808080" stop-opacity="0.1"/>
</linearGradient>
<linearGradient id="paint6_linear" x1="9012.2" y1="59379.8" x2="9012.2" y2="40915.5" gradientUnits="userSpaceOnUse">
<stop stop-color="#808080" stop-opacity="0.25"/>
<stop offset="0.54" stop-color="#808080" stop-opacity="0.12"/>
<stop offset="1" stop-color="#808080" stop-opacity="0.1"/>
</linearGradient>
<linearGradient id="paint7_linear" x1="30358.7" y1="60443.1" x2="30358.7" y2="41978.9" gradientUnits="userSpaceOnUse">
<stop stop-color="#808080" stop-opacity="0.25"/>
<stop offset="0.54" stop-color="#808080" stop-opacity="0.12"/>
<stop offset="1" stop-color="#808080" stop-opacity="0.1"/>
</linearGradient>
</defs>
</svg>
