<svg width="210" height="210" viewBox="0 0 210 210" fill="none" xmlns="http://www.w3.org/2000/svg">
<circle cx="105" cy="105" r="105" fill="#F4F4F4"/>
<path d="M86.3574 77.8606L81.1023 72.5945C79.8832 71.373 78.2616 70.7005 76.536 70.7005C74.8104 70.7005 73.1888 71.3732 71.9699 72.5945L68.1605 76.4122C65.653 78.9246 65.653 83.0129 68.1605 85.5255L73.4268 90.8027C73.9418 91.3188 74.6173 91.5768 75.2932 91.5768C75.967 91.5768 76.6411 91.32 77.1558 90.8065C78.1866 89.7779 85.3244 82.6167 86.3537 81.5894C87.3843 80.5609 87.3861 78.8916 86.3574 77.8606Z" fill="#626262"/>
<path d="M105 60.5273C103.544 60.5273 102.363 61.7079 102.363 63.1641V71.6016C102.363 73.0577 103.544 74.2383 105 74.2383C106.456 74.2383 107.637 73.0577 107.637 71.6016V63.1641C107.637 61.7079 106.456 60.5273 105 60.5273Z" fill="#7A9ACC"/>
<path d="M111.504 60H98.4961C97.0399 60 95.8594 61.1805 95.8594 62.6367C95.8594 64.0929 97.0399 65.2734 98.4961 65.2734H111.504C112.96 65.2734 114.141 64.0929 114.141 62.6367C114.141 61.1805 112.96 60 111.504 60Z" fill="#7A9ACC"/>
<path d="M105 60H98.4961C97.0399 60 95.8594 61.1805 95.8594 62.6367C95.8594 64.0929 97.0399 65.2734 98.4961 65.2734H105V60Z" fill="#7A9ACC"/>
<path d="M133.59 80.8503C125.954 73.1982 115.8 68.9838 105 68.9838C94.1999 68.9838 84.0464 73.1982 76.4101 80.8503C68.7752 88.501 64.5706 98.6729 64.5706 109.492C64.5706 120.311 68.7752 130.483 76.4101 138.134C84.0464 145.786 94.1999 150 105 150C115.8 150 125.954 145.786 133.59 138.134C141.225 130.483 145.43 120.311 145.43 109.492C145.43 98.6729 141.225 88.501 133.59 80.8503Z" fill="#7A9ACC"/>
<path d="M105 68.9838C94.1999 68.9838 84.0464 73.1982 76.4101 80.8503C68.7752 88.501 64.5706 98.6729 64.5706 109.492C64.5706 120.311 68.7752 130.483 76.4101 138.134C84.0464 145.786 94.1999 150 105 150V68.9838Z" fill="#7A9ACC"/>
<path d="M105 79.079C88.2625 79.079 74.6454 92.7221 74.6454 109.492C74.6454 126.261 88.2625 139.905 105 139.905C121.738 139.905 135.355 126.261 135.355 109.492C135.355 92.7221 121.738 79.079 105 79.079Z" fill="#E0E0E0"/>
<path d="M105 79.079C88.2625 79.079 74.6454 92.7221 74.6454 109.492C74.6454 126.261 88.2625 139.905 105 139.905V79.079Z" fill="#F4F2E6"/>
<path d="M105 85.6653C106.456 85.6653 107.637 84.4847 107.637 83.0286V79.1951C106.767 79.1199 105.888 79.0791 105 79.0791C104.112 79.0791 103.233 79.1199 102.363 79.1951V83.0286C102.363 84.4847 103.544 85.6653 105 85.6653Z" fill="#626262"/>
<path d="M105 133.319C103.544 133.319 102.363 134.499 102.363 135.955V139.789C103.233 139.864 104.112 139.905 105 139.905C105.888 139.905 106.767 139.864 107.637 139.789V135.955C107.637 134.499 106.456 133.319 105 133.319Z" fill="#626262"/>
<path d="M135.239 106.855H131.463C130.007 106.855 128.827 108.036 128.827 109.492C128.827 110.948 130.007 112.129 131.463 112.129H135.239C135.314 111.259 135.355 110.38 135.355 109.492C135.355 108.603 135.314 107.724 135.239 106.855Z" fill="#626262"/>
<path d="M81.1734 109.492C81.1734 108.036 79.9928 106.855 78.5367 106.855H74.7607C74.6858 107.724 74.6454 108.603 74.6454 109.492C74.6454 110.38 74.6858 111.259 74.7607 112.129H78.5367C79.9928 112.129 81.1734 110.948 81.1734 109.492Z" fill="#626262"/>
<path d="M111.504 107.97H107.784V97.306C107.784 95.8498 106.604 94.6693 105.147 94.6693C103.691 94.6693 102.511 95.8498 102.511 97.306V110.607C102.511 112.063 103.691 113.244 105.147 113.244H111.504C112.96 113.244 114.141 112.063 114.141 110.607C114.141 109.151 112.96 107.97 111.504 107.97Z" fill="#626262"/>
</svg>
